<?xml version="1.0" encoding="UTF-8"?> <svg xmlns="http://www.w3.org/2000/svg" id="Слой_1" data-name="Слой 1" viewBox="0 0 300 300"> <path d="M187.63,293.85h-8.9v-4.49h-4.47v-4.42h4.4v-4.37h-4.37V285h-8.75v4.35h-4.45V285h-4.41v8.83h-4.45q0-6.68,0-13.36h17.64v-4.25l0,0h4.38V267.4H161.12v8.88h-8.88v4.24h-4.47v13.33H134.62l0-4.46,0,0h8.65v-4.51h-4.4v-4.42h4.39v-4.23h-4.39V258.52h-4.29v8.77h-8.78v-4.44h4.33v-4.43h-4.41V254h4.45v-8.9h4.5v8.83h8.61v-4.39h-4.44v-8.66h-8.67v-4.52h4.5V232h4.26v4.42h4.43v4.4h4.44v13.09h8.94V249.5h4.42v-4.42h4.44v9h-4.41v8.79h4.44v-4.34h4.22v4.34h17.78v-4.4h8.9V254H201v22.21h4.27V262.88h4.43v8.91h8.9V285h-4.4v4.37h4.38v-4.4h4.5v-4.49h22v-4.13h4.45V285H254l0,0v4.48l0,0h-8.94V285h-4.23v8.83h-4.45v-4.38H223v4.38H209.69q0-6.68,0-13.36h4.4v-4.17H209.7v4.2H196.51v-4.29h-4.44l0,0v-8.85h-4.5v4.41h-4.43v-4.4H178.8v4.37h4.4v17.6h4.45C187.64,290.87,187.64,292.36,187.63,293.85Zm-44.26-22.11h13.24V258.52H143.37Z"></path> <path d="M6.15,147.77v-4.45h4.38V130.17H6.15v-17.8h8.92v4.46h-4.4v8.88h4.4v8.84h4.46v-4.32H24v4.38h8.69v4.31H46v8.79H50.5v-8.87h4.43v-4.2h4.44l0,0v4.31h4.3v4.34h8.91v-8.59H77v4.23H90.33v4.44H85.82v4.47H81.48v4.4h13.3v4.48H90.39v4.42h4.39v4.52H99v4.13h-8.7v-4.12H85.82v-8.89H81.43v8.85H77v8.61H81.4v-8.64l4.44,0v8.71h4.41v8.91H85.84v4.35H81.38v-8.86H68.05l0,0v-4.51H50.51V169.8h8.77v-8.71H55v-4.43h8.64v4.46h4.46v4.5H63.66v4.15h8.78v-8.63H68.05v-4.48h8.84v-4.42H68.05v-4.39H63.62v4.39h-4.3v-8.87H54.9v8.88H50.41v4.46H46c0,1.51,0,2.95,0,4.39l0,0c-.37,0-.73.06-1.1.06H28.21v13.16H23.92v-4.51H15.07v-4.21l0,0h8.83v-4.5H19.48v-4.43H15l0,0V152.2H10.56v-4.43Zm22.13-4.41v13.27H41.5V143.36Zm-4.37,4.49H19.58v4.32h4.33Zm-4.49-4.56v-4.36H15.11v4.36Z"></path> <path d="M293.85,138.87v13.36h-13.4v-8.85h-4.13v13.35h4.12v4.42H267.33v4.44l0,0H263v4.28h4.39l0,0v4.39h-8.94v-13H254v4.41h-4.44V152.24h-4.45v-4.51h4.5V143.3H254v-4.44h4.39v-8.72H254v-4.41h-4.44v-4.5H254v-4.42l4.48,0,0,0v4.48h13.38l0,0c0,1.48,0,3,0,4.44h-4.34v13.12h4.31V125.67l4.52.07,0,0v13.18H285l0,0v4.39h4.48v-4.39l0,0Zm-22.12,17.76V143.4H258.5v13.23Z"></path> <path d="M41.55,293.85V276.27H46v-8.88h4.42v-4.46H41.53c0-3,0-6,0-8.91l0,0H46v-4.47h4.52v-4.5l0,0h4.5v4.42h4.43V254H55v8.87h4.39v4.49H54.92v4.44h-4.4v4.37H54.9v-4.4h4.44v-4.44h4.25v-4.46h4.52v4.41h4.42v-8.86H77v17.74h4.48v-4.3h4.4V285l0,0H81.4l0,0v-4.38h-9V285H68.06v8.88H50.46c0-1.49,0-3,0-4.46h4.39v-8.81H46.06V285h4.41v4.44H46v4.43Zm22.12-22v4.36h8.76v-4.36Zm-4.23,8.7v8.81h4.09v-8.81Z"></path> <path d="M271.78,90.33V85.89h4.42V81.46h-8.78V77h22v4.39h4.47v4.45h-4.38v4.45h4.38V99l-8.91,0v-4.2h-4.37V99H285v4.5h4.44v4.43h-8.94v4.45h-4.23v-4.45h-4.45v-4.4h-4.37v4.37h4.4v4.46h4.45v4.51h8.62v4.42h-4.41v4.44l0,0h-4.27l0,0v-4.48h-4.48l0,0V116.8H258.43l0,0v-8.94H254v-4.44h8.94V94.73h4.44V90.3l0,0,4.48,0V99h4.37V90.33Zm8.79-8.87v8.77h4.33V81.46Z"></path> <path d="M19.51,231.93H10.64v4.46H6.15v-26.7l4.5-.06c0,1.49,0,3,0,4.49h4.43v4.51H10.65V223h8.78v-8.83H15v-4.49H10.62v-4.47h4.45V201l0,0h4.49v-4.51H24v-4.42l0,0,4.28,0v9H24v4.23h-4.4v4.36h4.37v-4.39h4.3v4.39h8.85v-4.39H41.6v4.41H46v-4.32h4.45v8.84H46.08v4.42h4.39v8.94l-8.93,0,0,0V223H32.7v-4.42h8.78v-4.35H28.16v4.4H23.94v8.88l0,0H19.49V232Z"></path> <path d="M262.9,293.85H254c0-1.49,0-3,0-4.46l0,0h4.39v-4.48H254l0,0v-4.51h4.38v-4.23H254v-4.43h-4.35v-4.47h4.31V254h-4.4v-4.5h8.9v-4.43h4.48v4.39h4.42v-4.39h4.5v4.45h4.43V254h4.25l0,0v8.93l0,0h-4.19v8.93h4.19l0,0,0,4.47h-4.25v4.25h-4.47v-4.2h-4.37v4.17h4.4V285h-4.5v4.42H262.9Zm8.82-22.09V258.5H258.5v13.26Z"></path> <path d="M46,28.19h-4.4V15.07H46V10.65h-4.4V6.15h8.91V15h8.91v4.4h4.16V15.06H59.34l0-4.47,0,0h4.27V6.15h4.45V19.52H85.88l0,0v8.64h4.48V19.49l0,0h4.48V32.67H90.27v4.38H85.84V32.73H81.37V45.94H76.94V28.19h4.4V24H77v4.19H72.46V24H68v4.18H59.34l0,0V23.94H54.89l0,0v-4.4H50.44V24l0,0H46v4.28Z"></path> <path d="M138.87,6.15h13.36v4.46H143.4v4.46h4.39v4.36h8.87V15h4.5v8.91h4.43v4.27H161.2v8.88h4.39v4.5h-4.45V46h-4.5v4.45h-8.88V46h-8.92V41.57h-4.23V37.09h4.25V23.94h4.39V19.51h-4.39Zm4.5,35.33h13.22V28.26H143.37Z"></path> <path d="M37.1,6.15v31H6.15V6.15Zm-4.49,4.52H10.68V32.6H32.61Z"></path> <path d="M6.15,262.9h31v31H6.15Zm26.43,26.46V267.43H10.65v21.93Z"></path> <path d="M293.85,37.1h-31V6.15h31Zm-26.46-4.52h21.93V10.65H267.39Z"></path> <path d="M116.83,32.67V28.23h4.38V24H112.4v4.11H108V24h-4.44V19.53h8.76V15.07H99.07V10.65h13.3V6.15h4.45v4.5h4.49v4.42h4.45V28.19h4.43v4.48h-4.5v4.42h-4.43l0,0V32.64H116.8Z"></path> <path d="M293.85,214.14v4.45h-4.49v8.92h-4.42V223H267.42v-4.45h4.32v-4.45h-4.41v-4.44h4.46v-4.45h4.51v8.95h4.22v4.34h4.38v-8.85h-4.38V201l0,0H285l0,0v4.26h8.91v4.46h-4.38v4.45Z"></path> <path d="M37.09,103.45v4.44H24v4.4H19.53v-4.37H10.62v-4.45H6.15V90.31h8.91c0,1.5,0,3,0,4.51H10.68V99h4.39v4.4h4.36V99H15c0-1.41,0-2.83,0-4.24H24v8.69H37.12Z"></path> <path d="M223,6.15v4.44h-8.88v8.88h-4.43V23.9h-4.51v4.31l0,0-8.73,0V23.92H192.1V19.49l0,0h4.48V10.58l0,0,4.48,0v8.83h4.27V15h4.42V6.15Z"></path> <path d="M99,293.85h-8.7v-4.46H85.85l0,0v-4.48l0,0h4.51V276.3h4.42v4.13h8.67v-4.19h4.48V285h-4.49v4.47H99Z"></path> <path d="M125.72,293.85h-4.45V285h-8.92V267.33h8.85v4.52h-4.33v4.41h4.43v4.23h4.44Z"></path> <path d="M280.48,54.89l8.93,0,0,0v4.47h4.46V72.51H276.27V68.05l0,0h8.64V59.34h-4.4l0,0Z"></path> <path d="M293.85,240.84v8.7h-4.38V254h4.38v4.46h-4.49v4.43h-4.42l0,0V254h-4.48l0,0,0-4.48h4.4v-4.42h-4.4v-4.28Z"></path> <path d="M6.15,41.55H23.87V46H19.49v4.5l0,0-4.48,0v-4.4H10.67v4.37h4.4v4.5H10.61v4.43H6.15Z"></path> <path d="M187.63,6.15h8.9c0,1.49,0,3,0,4.46l0,0h-4.48v8.94l0,0h-4.51V24h-8.87l0-4.48,0,0h4.49V15h4.42Z"></path> <path d="M267.33,165.59h26.52v4.25H276.27v4.39h-4.42v-4.41h-4.52l0,0v-4.28Z"></path> <path d="M24,192.07H6.15v-8.9l4.46,0,0,0v4.39h4.48v-4.39l0,0h4.43v4.42H24l0,4.48Z"></path> <path d="M289.39,187.65l4.46,0V201l-8.91,0,0,0v-8.95h4.46v-4.43Z"></path> <path d="M293.85,276.25h-4.42v-4.46h-8.95l0,0v-8.93l0,0H285l0,0v4.47h8.91Z"></path> <path d="M280.48,125.73h4.43v4.44h8.94v4.45h-4.46v4.27l0,0h-4.48l0,0v-4.31h-4.45v-8.87Z"></path> <path d="M6.15,85.86V72.51l4.46,0v9h4.45v4.44Z"></path> <path d="M85.88,19.52V10.65h4.43V6.15h4.46V15H90.3v4.51l0,0H85.85Z"></path> <path d="M72.51,293.85v-4.41h4.43V285h4.49l0,0v4.48h4.48l0,0v4.46Z"></path> <path d="M284.94,46h4.42V41.55h4.49V54.91l-4.46,0,0,0V50.49H285V46Z"></path> <path d="M293.85,289.4H285V285h4.33V280.5h4.5Z"></path> <path d="M6.15,161.13h4.42v-4.44h4.5l0,0v8.93l0,0H6.15Z"></path> <path d="M231.94,6.15v8.91h-4.46c0-3,0-5.94,0-8.91Z"></path> <path d="M174.28,6.15v4.46h-8.71V6.15Z"></path> <path d="M271.8,293.85v-4.38h8.7v4.38Z"></path> <path d="M59.37,10.59H54.91V6.15h4.45l0,4.46Z"></path> <path d="M6.15,174.28h4.46v4.46H6.15Z"></path> <path d="M293.85,178.73h-4.38v-4.45h4.38Z"></path> <path d="M293.85,125.72h-4.38v-4.45h4.38Z"></path> <path d="M289.39,107.9l4.46,0v4.45h-4.46Z"></path> <path d="M6.15,249.54h4.43V254l0,0H6.15Z"></path> <path d="M77,10.58H72.51V6.15H77c0,1.49,0,3,0,4.46Z"></path> <path d="M134.62,6.15v4.38h-4.45V6.15Z"></path> <path d="M156.66,10.61c0-1.49,0-3,0-4.46h4.45v4.46Z"></path> <path d="M254,6.15c0,1.47,0,2.95,0,4.42l0,0h-4.5V6.15Z"></path> <path d="M196.53,293.85c0-1.49,0-3,0-4.46l4.48,0,0,0,0,4.46Z"></path> <path d="M201,10.61c0-1.49,0-3,0-4.46h4.24v4.46Z"></path> <path d="M6.15,240.84h4.38v4.25H6.15Z"></path> <path d="M223,81.4V94.78l0,0-8.92,0v-4.4h-4.37v4.37h4.39l0,4.28,0,0h-4.48v4.48l0,0-8.73,0V99h-8.9l0-4.28,0,0h8.85V90.27h-4.4V81.4h8.73V77l0,0h4.52v8.83h4.42V81.43h8.89Z"></path> <path d="M223,94.78h4.48l0,0v4.3h8.93v4.43h-4.52V108h-4.33v4.46h4.33v4.35H218.66v-4.41H223v-4.46H209.7v-4.44l0,0h4.48V99l0,0h8.93V94.75Z"></path> <path d="M236.38,37.09V46h4.48v4.45H232V63.53h-4.49V32.64h4.42v4.48h4.5Z"></path> <path d="M205.22,28.21h8.9V46l0,0h-4.51v4.48H192.07V46h13.15v-8.9h4.39V32.67h-4.39l0-4.48Z"></path> <path d="M240.86,85.88v-4.4H254v8.85h4.5l0,0v4.39h-8.91V90.31h-4.46V85.85h-4.23Z"></path> <path d="M227.5,15v4.48h8.9l0,0v4.42H232v4.31h-4.49V24H223.1V15Z"></path> <path d="M258.43,63.59V76.88H254V72.49h-4.5l0,0V68H254V63.62h4.42Z"></path> <path d="M218.57,72.53H223V68.11h4.39V81.4H223l0,0v-4.5H218.6V72.5Z"></path> <path d="M227.5,28.19v4.48h-4.44V41.5h-4.39V28.19Z"></path> <path d="M236.41,72.52V59.37h4.45l0,0v4.25h4.28v4.5h-4.28v4.43l0,0h-4.48Z"></path> <path d="M267.36,68.07V63.64h4.42V59.37h8.73l0,0v4.3h-4.24v4.43l0,0h-8.93Z"></path> <path d="M214.12,63.62h4.45v8.91l0,0h-8.93V68.05h4.48V63.59Z"></path> <path d="M258.46,90.33V81.48h4.4v4.34h4.47v4.51l0,0h-8.93Z"></path> <path d="M214.12,46h4.44v4.4H223v4.47h-8.84l0,0V46Z"></path> <path d="M267.33,54.92V50.53h13.18v4.39Z"></path> <path d="M214.12,54.89v8.73l0,0-4.48,0v-4.3h-4.36v-4.4h8.84Z"></path> <path d="M232,90.33V85.88h8.9l0,0V90.3h-8.9Z"></path> <path d="M245.08,46l4.48,0,0,0v8.9h-4.45l0,0Z"></path> <path d="M236.38,72.49v8.85H232V72.52h4.4Z"></path> <path d="M249.53,72.49v4.4h-8.67v-4.4l0,0h8.73Z"></path> <path d="M262.88,54.92l4.48,0v4.45h-4.48l0,0V54.89Z"></path> <path d="M227.5,94.78V90.33H232l0,0v4.45h-4.45Z"></path> <path d="M267.34,68v4.4H263V68.07h4.4Z"></path> <path d="M240.86,59.37V54.92h4.25l0,0,0,4.48-4.28,0Z"></path> <path d="M262.88,59.34v4.25h-4.45l0,0V59.37h4.45Z"></path> <path d="M240.83,46V41.63h4.28V46Z"></path> <path d="M94.78,143.34V130.21H68.09v-8.93H54.94V108H50.47v-4.51l0,0h4.48V99l0,0H72.45v-4.3H63.62V90.3l0,0H77V85.94h4.44V99H77v8.9l-4.51,0v-4.43H68.07v4.39h-4.4v8.81H68v-8.83l4.45,0v17.73h9v-4.41h4.44v4.49H99.05v4.41h4.43v4.39h4.42v-4.39h4.51v4.41h4.42v-4.42h4.36v-4.42H107.9v-9h4.42v-4.42H108V107.9h8.84v13.31h4.47V116.8h4.43v4.5h4.42v4.34h8.67v-4.31h-8.69l0-4.53h8.76v-4.38h4.42v4.44h8.83v4.42h-4.43v4.47h-4.36v13.06h13.28v-4.2h4.4v-4.42h-4.4v-8.84h4.5v4.31h4.45V112.35h8.68v4.48H169.9v4.43h4.39v4.45h4.46v4.51h-4.51v8.58h-4.47v-8.57h-4.12v13.12h4.19v4.35h4.47v-4.31h4.44v8.85h-4.4v4.36h4.37v-4.39h8.95v4.52H201v4.34h8.7v-8.86h4.43v13.41h-8.86v8.68h4.41v4.44H201V165.56h-4.43V161.2H178.75v4.39h-4.49V161.2h-4.42v4.39h-4.28v-8.92h4.2V152.3h-4.17v4.39h-4.51v22.08h-4.34v4.4h8.85v13.29h-8.86v-4.39h4.33v-4.42h-13.3q0-6.71,0-13.42h8.9V169.8h-4.41v-4.23h4.4V161.2h-4.37v4.4h-4.49v8.66H134.61l0,0v-13.2h-4.5v-4.43H125.8V152.2h8.76v-4.46H125.7V134.61h4.52v4.21h4.34v-8.58h-8.83v4.4h-4.5v17.57H116.8l0,0v-4.45h-4.48v-4.52h4.41v-4.33h-8.83v8.85l-8.93,0,0,0v-4.48H94.75Zm48.58,13.26h13.27V143.38H143.36Zm-.06,4.59H139v4.31h4.35Z"></path> <path d="M28.19,59.37H41.51V54.92H46l0,0v4.4H63.62v-4.4l0,0h4.48l0,0v8.7h4.48V68.1H68.07V77l-8.69,0V63.66H46.07v4.43H55V76.9h4.45c0,3,0,5.94,0,8.94h4.22l0,4.48,0,0h-4.3v4.48H54.9V90.37H50.41l0-4.52h4.4V81.49H50.47v4.39h-4.4v4.46h4.37v4.41h4.49l0,4.28,0,0H50.44v4.48l0,0H37.09l0,0V99H28.17V90.3H24V81.4h8.65v4.51h4.38v4.42H32.73v4.39h8.83V81.39H46V77h4.4V72.58H46V77H37.09V72.48H32.64V68.05H37V63.68H32.66v4.4h-4.5v8.83H24V63.58h4.21V59.34Z"></path> <path d="M15,125.74V116.8l13.17,0,0,0,0,8.93Z"></path> <path d="M46.06,121.32v-4.45H41.63v-4.44H50.4v8.86H46Z"></path> <path d="M28.21,116.84v-4.4H37v4.37H28.18Z"></path> <path d="M41.51,130.23H46v4.31H41.53c0-1.42,0-2.88,0-4.34Z"></path> <path d="M32.64,134.64l0-4.48,0,0h4.48l0,0v4.48Z"></path> <path d="M50.48,130.11V125.8h4.35v4.31Z"></path> <path d="M37.09,125.74h4.48l0,0,0,4.52,0,0-4.45,0,0,0v-4.48Z"></path> <path d="M32.67,130.16H28.19v-4.45l4.48,0,0,0v4.48Z"></path> <path d="M41.57,125.74v-4.42h4.49l0,0v4.42H41.54Z"></path> <path d="M32.67,125.74v-4.4h4.42v4.4l0,0H32.64Z"></path> <path d="M94.78,147.76H90.3v-4.45l4.48,0,0,0v4.48Z"></path> <path d="M59.37,134.64v-4.39h4.17v4.36h-4.2Z"></path> <path d="M249.53,37.12H254v-4.4h4.47v8.85l0,0H254V46l0,0h-4.48l0,0V37.09Z"></path> <path d="M258.43,41.57h4.45V54.92l0,0h-4.49V50.42H254V46l0,0h4.48V41.54Z"></path> <path d="M254,23.94h-8.85V15.11h4.33v4.41H254l0,0V24Z"></path> <path d="M285,46H271.88V41.62h13.06V46Z"></path> <path d="M236.4,19.52V10.67h4.38v8.82h-4.4Z"></path> <path d="M254,19.52l0-9,0,0h4.37v8.92H254Z"></path> <path d="M236.4,37.12V28.28h4.38v8.81h-4.4Z"></path> <path d="M249.56,37.09h-4.4V28.27h4.37v8.85Z"></path> <path d="M254,24h4.39v4.17H254V23.94Z"></path> <path d="M46,240.83H32.72v-4.4H37v-4.5H23.94l0,0v-4.48l0,0H41.57l0,0v8.94H46v4.44Z"></path> <path d="M24,254l-4.43,0,0,0v-4.47H15.12v-4.41h8.81V254Z"></path> <path d="M10.58,254l9,0,0,0v4.37H10.61V254Z"></path> <path d="M23.94,231.93v8.84H19.51v-8.84l0,0H24Z"></path> <path d="M37.11,249.53H28.28v-4.37h8.81v4.4Z"></path> <path d="M37.09,249.56h4.42v4.49l0,0-4.45,0,0,0c0-1.5,0-3,0-4.48Z"></path> <path d="M37.09,254v4.39H32.72V254h4.4Z"></path> <path d="M50.47,245.08H46v-4.25l0,0h4.45v4.25Z"></path> <path d="M23.93,254h4.2v4.37H24V254Z"></path> <path d="M59.37,41.57V32.64l0,0h4.3v4.45h4.43l0,0V41.6h4.5v8.87h4.35v4.42H68l0,0V50.44H63.59l0,0V41.54H59.34Z"></path> <path d="M46,46h8.88V41.57h4.5l0,0v8.93h4.28l0,0v4.48l0,0H46l0,0V46Z"></path> <path d="M46,32.66V28.19l0,0h4.48V23.94l0,0h4.48l0,0v4.28h4.48l0,0v4.48l0,0H54.93v4.41H50.51V32.63H46Z"></path> <path d="M19.49,50.47h4.43v4.46h4.29l0,0v4.47l0,0-8.73,0,0-8.93Z"></path> <path d="M28.21,54.93v-4.4H37V54.9H28.18Z"></path> <path d="M46,32.63V37H41.62V32.66H46Z"></path> <path d="M32.73,41.59H37V46H32.73Z"></path> <path d="M46,46H41.63V41.62H46V46Z"></path> <path d="M116.8,54.89v8.68h-4.45v8.95l0,0h-4.5V77H99l0,0,0-8.93h8.84V59.41h-4.4v4.21H99V59.43H94.78v4.19l-4.48,0,0,0V50.44l0,0h4.51v4.39H99V50.43h4.46V46l0,0h4.48l0,0v8.93h8.93Z"></path> <path d="M121.26,37.09v4.43h-8.91V46l0,0H107.9l0,0V37.09l0,0h4.42V32.67h4.5l0,0v4.48h4.48Z"></path> <path d="M94.78,41.57l0-8.93H99v8.93l0,0H94.75Z"></path> <path d="M107.93,37.09h-4.39V32.72h4.37v4.4Z"></path> <path d="M99,41.57h4.45V46l0,0H99V41.54Z"></path> <path d="M245.11,152.21v13.38h-8.65v4.17h8.62v-4.2h4.48v8.73h-4.4v4.37h4.37v-4.4H254v4.44h4.48v4.49l0,0H240.81v-8.91h-8.88l0,0V161.11l0,0h4.39v-4.48h-4.39l0,0v-4.48Z"></path> <path d="M271.81,183.19v-4.44h8.65v-4.39h4.47v8.83l0,0H271.78Z"></path> <path d="M267.33,183.2h4.48l0,0v13.38h-4.45l0-13.38Z"></path> <path d="M262.91,183.19V178.8h4.42v4.4l0,0h-4.48Z"></path> <path d="M258.43,183.19h4.48l0,0v4.48h-4.45l0-4.48Z"></path> <path d="M284.93,183.19h4.46v4.46l0,0H285v-4.45Z"></path> <path d="M280.48,280.51v-4.27h4.4v4.27Z"></path> <path d="M276.24,280.48h4.27v4.4h-4.27Z"></path> <path d="M196.55,289.42h-8.93V285h8.93Z"></path> <path d="M192.07,276.23v4.2H187.7v-4.17h4.4Z"></path> <path d="M201,289.42V285h4.17v4.37H201Z"></path> <path d="M28.19,174.26h8.9v4.48l0,0H32.64v4.48l0,0H28.19l0,0Z"></path> <path d="M10.61,183.2l0-4.48H15v4.48l0,0H10.58Z"></path> <path d="M28.21,187.62l-4.27,0v-4.46h4.28l0,0v4.48Z"></path> <path d="M138.89,19.49V24h-4.23v4.25h-4.5V19.49Z"></path> <path d="M76.94,10.61h4.4V15H77v-4.4Z"></path> <path d="M15.07,201h-4.4V196.6H15V201Z"></path> <path d="M267.33,240.86V232h8.89v-4.51H285v4.44h4.39v4.42h-8.84v4.52Z"></path> <path d="M107.9,284.94h4.48v4.39H107.9Z"></path> <path d="M174.29,24h-8.73V15.13h4.23v4.39h4.5l0,0Z"></path> <path d="M174.26,10.58h4.46v8.94l0,0h-4.48l0,0Z"></path> <path d="M156.69,15.06h-4.48V10.58h4.48Z"></path> <path d="M138.89,276.24v4.27H125.71v-8.64h4.43v4.37Z"></path> <path d="M134.64,289.39h-4.39V285h4.36v4.4Z"></path> <path d="M10.58,59.34h8.94v4.24H15v8.94l0,0-4.48,0Z"></path> <path d="M15,85.85h4.39v4.48H15Z"></path> <path d="M209.67,192.07v4.44h4.41v4.42h-8.77v4.32H218.6l0,0v8.93h-8.9v-4.38h-4.38v4.41l-4.32,0v-4.4h-8.81v4.37H201v4.4h4.26v-4.36l4.44,0v4.51h4.47V223h4.46v-4.33h4.42v8.88h4.45v8.89l-4.48,0,0,0V231.9h-8.94v-4.42H183.17l0,0v-4.44h13.28v-4.43H183.19v-8.9h-4.43v4.35h-4.43v-4.41h-4.52l0,0v-4.5h8.87V201h9v4.21h13.24v-4.24h-8.87V196.6H178.74V201h-8.85v-8.95h4.37v-4.43h8.94v4.5h13.36v4.36H201v-8.86h4.24v4.48h4.45Z"></path> <path d="M147.76,240.86v-8.93h4.4v-4.37h-4.37V232h-4.44v-4.49H130.16l0,0V223h-4.48l0,0v-4.48l0,0h4.48v-4.48l0,0h4.51V223h4.22v-4.33h4.46V223h4.45v-8.83h4.44l0,0v4.45h8.89v8.88h4.42v4.47h-8.81V245h-4.43v-4.17Z"></path> <path d="M178.74,240.83l-4.48,0V232h-4.37v-8.88h8.8v4.41h4.51l0,0V232h4.41v4.43h-8.86v4.44Z"></path> <path d="M169.81,209.67v8.84H165.6v-4.39H152.21l0,0,0-4.48h9V201h4.43v8.66h4.24Z"></path> <path d="M174.29,240.83v13.09h-4.43v-8.81h-4.3v-4.24h-4.37v-4.43h8.59v4.39Z"></path> <path d="M240.83,232h8.73v4.44h-4.4v4.37h4.37v-4.4h13.38v4.49h-4.45v4.25H245.17V254h4.39v4.44H245.1v4.43h-4.22v-4.42h-8.95l0,0v-8.95h-4.39v-4.45h8.84v-4.25h4.45v-8.88Zm-4.38,17.63v4.34h4.32v-4.34Z"></path> <path d="M218.57,271.81v-8.9h-8.9l0-4.48,0,0H232l0,0v4.48l0,0h-8.85v4.48H232l0,0v4.48Z"></path> <path d="M231.93,262.91h4.39v4.42h-4.39l0,0v-4.48Z"></path> <path d="M236.47,271.84h4.31v4.35h-4.31Z"></path> <path d="M196.52,249.53l0,4.48h-8.93l0-4.48,0,0h8.93Z"></path> <path d="M187.65,249.53H183.2v-4.45l0,0h4.45v4.45Z"></path> <path d="M187.65,254v4.48h-4.4V254Z"></path> <path d="M183.2,245.08h-4.46v-4.25l0,0h4.45v4.25Z"></path> <path d="M112.38,267.36H108v4.42h-4.5l0,0,0-13.38h8.85v-8.8h-4.43V254h-4.39v4.44H99V254H94.74v-4.43H90.3l0,0V236.38l0,0h4.48l0,0v4.5H108v4.23h17.77l0,0,0,8.93h-4.43v8.85h-8.93Z"></path> <path d="M107.9,232h8.88V218.6h4.5l0,0v4.48h4.48l0,0v4.48l0,0h-4.48v8.94l0,0H107.93v-4.45Z"></path> <path d="M130.16,227.47v4.4h-4.43v-4.4l0,0h4.48Z"></path> <path d="M121.25,236.41h4.46v4.45l0,0h-4.46v-4.45Z"></path> <path d="M130.19,245.11l-4.48,0,0,0v-4.28l0,0,4.48,0Z"></path> <path d="M169.85,276.24h-4.2v-4.37h4.17v4.4Z"></path> <path d="M152.16,267.33h-4.3V263h4.3Z"></path> <path d="M201,254v-4.48h-4.45l0,0v-4.51h-4.42V232h4.44v4.34H201V232h4.29v8.78h8.87v-4.38h8.89l0,0v4.51h-4.47v4.23H205.22V254l0,0Z"></path> <path d="M209.7,258.43h-4.45V254l0,0h4.48l0,0v4.48Z"></path> <path d="M54.89,214.15v-4.44H59.3v-4.42H54.94V201H46.06v-4.42h4.41v-4.51l0,0h4.48l0,0v4.39h4.48v-4.39l0,0h4.27l0,0v8.85H77v-8.85l0,0H90.33l0,0v4.44H85.92v8.67h4.36v4.5h13.16v4.42h4.46v4.46h4.39v8.91H107.9l0,0v-4.39H99v13.27H94.75l0,0v-4.48H90.3l0,0v-4.51h4.38V223H85.83v-8.88H81.4v-8.84H77v8.84H72.5V232l0,0H68v8.93l0,0H59.4v-4.41h-9v-8.94h8.93v4.4h4.16V227.5H59.34v-4.44h4.24v-4.43h4.47v-8.92h4.39v-4.42H63.66v8.86Zm39.92,4.37h4.12v-4.33H94.81Z"></path> <path d="M94.75,156.66H99v-4.45l0,0h4.5v4.37h8.85v-4.4l4.48,0,0,0v4.52h4.51v4.43h4.43v4.43h4.36v4.27h-4.31v4.43h8.85l0,0v4.52h8.66v4.33H130.13v-4.32H125.7v8.83h-4.44l0,0v-4.44h-4.41V174.3h4.32v-4.49h-8.84l0,0v-8.7H94.75Z"></path> <path d="M121.28,218.6v-4.44h-4.42v-4.43h-4.48v-4.51l0,0h4.4V201h-4.4l0,0v-4.48h-8.93l0,0v-8.9h4.45l0,0V192h8.89v-4.36h4.5l0,0v4.5h4.51v4.4h8.87v8.73h-4.48v8.9l0,0h-4.48v4.48l0,0h-4.48Zm.06-17.57v8.57h4.33V201Z"></path> <path d="M50.47,192.07H41.54l0,0v-4.48H32.64l0,0v-4.48l0,0h4.48v-4.48l0,0h4.43v4.46H46l0,0v4.48h4.48l0,0v4.48Z"></path> <path d="M72.53,192.1v-8.85H77v8.85l0,0H72.5Z"></path> <path d="M46,165.57v8.63H41.62v-8.6H46Z"></path> <path d="M103.42,174.35v4.33H94.85v-4.33Z"></path> <path d="M112.38,205.22h-8.9V201l0,0h8.93l0,0v4.28Z"></path> <path d="M46,165.6l0-4.53,0,0h4.37v4.47H46Z"></path> <path d="M112.36,169.81v4.4h-4.43v-4.39l0,0h4.47Z"></path> <path d="M46,183.2v-4.4h4.42v4.39l0,0H46Z"></path> <path d="M68.05,178.71v4.4H63.68v-4.37h4.4Z"></path> <path d="M50.44,183.19h4.45v4.46l0,0H50.44l0,0v-4.48Z"></path> <path d="M107.93,187.65v-4.4h4.37v4.37h-4.4Z"></path> <path d="M54.89,187.65h4.46v4.45l0,0H54.89l0,0v-4.48Z"></path> <path d="M63.62,192.1v-4.4H68v4.4l0,0H63.59Z"></path> <path d="M90.33,192.1v-4.45h4.45l0,0v4.45H90.3Z"></path> <path d="M68,192.1h4.49l0,0v4.39H68.07v-4.39Z"></path> <path d="M103.48,201H99.09v-4.42h4.39l0,0V201Z"></path> <path d="M107.9,227.47V232l0,0h-4.39V227.5h4.39Z"></path> <circle cx="65.83" cy="154.45" r="3.17"></circle> <path d="M107.93,169.82h-4.39v-4.17h4.37v4.19Z"></path> <path d="M37,169.81H32.73v-4.16H37Z"></path> <path d="M94.78,187.65v-4.4H99v4.37h-4.2Z"></path> <path d="M37.05,152.19H32.72v-4.36h4.33Z"></path> <path d="M99,152.21l-4.28,0,0-4.48,0,0H99l0,0v4.48Z"></path> <path d="M240.86,130.16h-4.45v-4.39H218.63v8.79h-4.47V130.2h-4.42v-8.85h35.34v4.38l0,0h-4.28v4.48Z"></path> <path d="M227.47,143.31v4.42h-8.85v4.51h-4.5v-4.4h-8.85v4.31H201v-8.84l0,0h4.24c0-2.94,0-5.82,0-8.69l0,0h4.47v8.56h4.45v-4.35h8.94l0,0v4.48h4.48Z"></path> <path d="M174.26,116.8h4.4v-4.42h-4.4v-8.93h13.39v8.93h-4.43v13.36h-4.5v-4.46h-4.46Z"></path> <path d="M236.41,143.34l-8.94,0,0,0v-4.48H223l0,0v-8.65h8.85v4.34h4.51Z"></path> <path d="M249.56,125.71v8.87H254v4.31h-8.88v4.45h-4.3l0-13.18,0,0h4.28v-4.48l0,0Z"></path> <path d="M201,125.71v4.44h4.22v4.53l0,0-17.6,0,0,0v-8.84h4.42v4.33h4.42v-4.38H201Z"></path> <path d="M187.62,134.61V147.7h-4.43v-8.8h-4.38v-4.27h8.84Z"></path> <path d="M192.07,112.38V108h4.43v-4.51H201v8.93Z"></path> <path d="M201,143.31h-4.44v4.41h-4.39V139H201v4.39Z"></path> <path d="M201,125.74V121.3h-4.41v-4.4h8.57v8.81H201Z"></path> <path d="M245.08,112.35H254v4.48h-8.93Z"></path> <path d="M187.62,112.35h4.48v8.85h-4.48Z"></path> <path d="M240.86,143.31v4.39h-4.48v-4.39Z"></path> <path d="M209.73,116.77v-4.34h4.35v4.34Z"></path> <path d="M236.38,103.45h4.48v4.48h-4.48Z"></path> <path d="M240.83,107.9h4.28v4.48h-4.28Z"></path> <path d="M245.11,192.1H232v-4.4h-4.45V192h-4.45v-8.8h-4.51l0-8.93,0,0H232l0,0v4.52h4.5v8.88h8.68Z"></path> <path d="M218.6,169.84V156.76H223v4.38h4.5l0,0v4.5H223v4.2h-4.43Z"></path> <path d="M227.5,161.14v-4.45H232l0,0v4.48l0,0h-4.48Z"></path> <path d="M218.6,174.27h-4.39v-4.43h4.39l0,0v4.48Z"></path> <path d="M209.7,183.19l0-4.47h4.45v4.47l0,0h-4.48Z"></path> <path d="M218.6,183.17v4.45h-4.48l0,0v-4.48l0,0Z"></path> <path d="M263,147.8h4.29v4.36H263Z"></path> <path d="M245.08,99H254v4.45h-4.43v4.45h-4.5l0-8.93Z"></path> <path d="M90.33,236.38H85.9v8.69H81.4l0,0v-4.27H72.5l0,0v-8.93l0,0H90.33l0,0v4.48Z"></path> <path d="M59.34,249.56v-4.43h8.73v-4.3l0,0h4.48l0,0v8.73Z"></path> <path d="M63.62,262.91H59.34V254H68v4.43H63.62Z"></path> <path d="M85.88,258.43l-8.93,0V254h8.93l0,0v4.48Z"></path> <path d="M81.4,245.07v4.4H77V245.1h4.4Z"></path> <path d="M85.88,254v-4.45h4.45l0,0V254H85.85Z"></path> <path d="M99,271.78H94.81v-4.4H90.33v-4.5l0,0H99v8.9Z"></path> <path d="M90.33,262.88H85.88v-4.45l0,0H90.3v4.45Z"></path> <path d="M103.45,271.78l0,4.48H99v-4.48l0,0h4.48Z"></path> <path d="M245.11,99h-4.19V94.83h4.16V99Z"></path> <path d="M50.44,218.6v-4.48h4.48v4.48Z"></path> <path d="M37.09,201v-4.43H32.67v-4.5l0,0h8.93l0,0V201Z"></path> <path d="M37.12,205.25h-4.4V201h4.4Z"></path> <path d="M28.19,192.1l0-4.48,0,0h4.48l0,0v4.48l0,0Z"></path> <path d="M267.33,263v4.29H263V263Z"></path> <ellipse cx="265.12" cy="242.97" rx="3.17" ry="3.02"></ellipse> <path d="M280.51,245.08v4.48h-4.27v-4.48Z"></path> <path d="M77,72.52V68.09H81.4v-4.5l8.93,0,0,0V68.1H85.91v4.42h4.44V77H99l0,0v4.5H94.78v4.43l-4.48,0,0,0V81.44H85.87V77H81.45V72.52Z"></path> <path d="M81.43,63.62H72.5V59.43h8.93Z"></path> <path d="M68.07,37.12V32.73h4.37v4.36H68Z"></path> <path d="M90.33,46V41.57h4.45l0,0V46H90.3Z"></path> <path d="M85.88,50.47V46h4.45l0,0v4.48l0,0H85.85Z"></path> <path d="M85.85,50.44v4.39H81.48V50.47h4.4Z"></path> <path d="M125.71,85.88h8.88V81.47h8.71v4.35h13.31v4.46h-4.34v4.47h-4.51l0,0v-4.4h-8.91v4.34h-8.66V90.3h-4.51l0,0V85.85Z"></path> <path d="M174.26,81.4v4.44h-4.39v4.42h-4.22V99h4.19l0,0v4.44h-4.19v4.39h-4.45V99h-4.51l0,0V94.79h4.42V81.43h13.18Z"></path> <path d="M192.07,72.5v4.43h4.48v4.5h-4.44v4.43h-8.9v4.38h-4.46V81.4l0,0h4.39V77h-4.39l0,0V72.5l0,0H192.1Z"></path> <path d="M112.35,72.52h8.85V77h-4.33v4.42h8.84v4.51l0,0H112.33v4.42H108V81.38h4.4V72.5Z"></path> <path d="M143.31,72.52V68.1h4.44V63.62h8.94l0,0v8.93h8.93l0,0v4.44H152.21l0,0V72.52Z"></path> <path d="M112.35,46l17.84,0v13.3h-4.45V50.51h-4.43v4.38H116.8l0,0v-4.5h-4.45V46Z"></path> <path d="M116.8,107.93V103.5h-4.45V99h4.51V90.33h8.88l0,0v4.43H121.3v13.2Z"></path> <path d="M147.79,50.44v4.43h4.37v4.47h-8.85l0,0V55h-4.48v4.39l0,0h-4.2v-8.9Z"></path> <path d="M138.89,63.59v8.93h-8.67v4.37h-4.48V68.05l0,0h8.87V63.59Z"></path> <path d="M174.29,77h-4.43V72.5h-4.3l0,0V68l0,0h13.16v4.45l0,0h-4.48V77Z"></path> <path d="M134.61,103.45v4.4h-8.83V99.07h4.35v4.41h4.51Z"></path> <path d="M147.76,94.75v13.09h-4.37V94.78h4.4Z"></path> <path d="M156.69,130.16v4.48h-8.84v-4.48Z"></path> <path d="M130.16,46V41.54h4.48V46Z"></path> <path d="M130.19,116.83h-4.48v-4.39h4.48Z"></path> <path d="M156.63,108v4.33h-4.34V108Z"></path> <path d="M192.1,99v4.48h-4.48V99Z"></path> <path d="M156.66,99v4.39h-4.37V99h4.4Z"></path> <path d="M192.1,94.75h-4.39V90.38h4.36v4.4Z"></path> <path d="M174.29,81.43V77l0,0h4.48l0,0v4.48l0,0h-4.49Z"></path> <path d="M152.21,76.94v4.4h-4.37V77h4.4Z"></path> <path d="M138.86,72.5h4.48v4.39h-4.48Z"></path> <path d="M125.74,68.05h-4.4V63.68h4.37v4.4Z"></path> <path d="M134.64,103.48V99.09h4.16v4.36h-4.19Z"></path> <path d="M143.31,59.34v4.28h-4.45l0-4.28,0,0h4.48Z"></path> <path d="M178.78,99V94.84h4.34V99Z"></path> <path d="M169.84,99V94.84h4.37V99h-4.4Z"></path> <path d="M161.11,46l8.73,0,0,0v17.6h-4.25l0,0V50.5h-4.48Z"></path> <path d="M161.11,63.62h4.48l0,0v4.48l0,0h-4.45V63.59Z"></path> <path d="M156.69,63.62V59.43h4.42v4.19l0,0h-4.48Z"></path> <path d="M187.65,41.57h-4.48v8.9l0,0-4.49,0V46h-8.9l0,0V41.59h4.41V32.67h4.49l0,0V37h4.48V32.64l0,0h4.48Z"></path> <path d="M165.56,37.12V28.19h4.2v8.93Z"></path> <path d="M178.72,28.19h4.45v4.48l0,0h-4.48l0,0C178.73,31.17,178.73,29.68,178.72,28.19Z"></path> <path d="M174.26,23.94h4.48v4.28h-4.48Z"></path> <path d="M152.21,32.72V37h-4.36v-4.3Z"></path> <path d="M130.16,32.64h4.48v4.48h-4.48Z"></path> <path d="M28.13,28.16h-13v-13h13Z"></path> <path d="M28.16,271.87v13h-13v-13Z"></path> <path d="M284.91,15.12v13h-13v-13Z"></path> <path d="M245,196.49q0,5.5.05,11v2.13h4.39v4.46h-4.34v4.42h-8.69v-4.34h4.33v-4.47h-4.31v-4.46h4.33V201h-4.35v-4.51h8.62Z"></path> <path d="M258.4,214.19h4.41V223h-4.38v4.5l0,0H245.17v-4.4H254v-4.45h4.45v-4.46Z"></path> <path d="M258.46,187.62v4.43h4.42v4.5l0,0h-4.5V201H254l0,0v-8.9h-4.48v-4.48Z"></path> <path d="M267.33,205.22l0,4.48h-9v4.49l0,0H254v-8.94l0,0h13.38Z"></path> <path d="M227.48,209.7h4.45v13.35l0,0H227.5V209.67Z"></path> <path d="M218.6,205.25v-8.64H223v8.64l0,0h-4.48Z"></path> <path d="M214.12,187.62v4.45h-4.45l0,0v-4.48l0,0h4.48Z"></path> <path d="M245.08,192.07h4.48v4.42H245l0,0C245.07,195,245.07,193.55,245.08,192.07Z"></path> <path d="M231.92,196.62v4.29h-4.36v-4.29Z"></path> <path d="M223,205.25h4.46v4.45l0,0h-4.45v-4.45Z"></path> <path d="M231.93,223.05h4.45v4.45l0,0H232V223Z"></path> <path d="M236.38,227.5h4.45V232l0,0-4.48,0,0-4.48Z"></path> <path d="M258.43,227.5h4.39v4.37h-4.36v-4.4Z"></path> <path d="M254,205.22h-4.4V201H254l0,0v4.28Z"></path> <path d="M262.88,196.55l4.48,0,0,4.48,0,0h-4.45v-4.45Z"></path> <path d="M280.52,201h-4.2V196.6h4.17V201Z"></path> <path d="M271.81,205.25l-4.48,0,0,0V201l0,0h4.48Z"></path> <path d="M37.12,77v4.48H32.64V77Z"></path> <path d="M15,72.52h4.4v4.37H15.06v-4.4Z"></path> <path d="M201,37.09v4.48h-8.93V28.19h4.48v8.9Z"></path> <path d="M192.1,46h-4.48V41.54h4.48Z"></path> <path d="M205.25,32.64v4.48H201V32.64Z"></path> <path d="M209.7,63.59v4.48l-13.18,0,0,0V59.34h-9V54.92h-4.43l0-4.48,0,0,8.93,0v4.43H201v8.72Z"></path> <path d="M196.52,68V72.5h-4.45l0,0V68.07h4.45Z"></path> <path d="M205.25,77h-4.19V72.58h4.16V77Z"></path> <path d="M245.08,63.62V59.34h4.39v4.28Z"></path> <path d="M134.61,196.55v-4.43h-4.38v-4.5h17.56v4.43h-4.44v4.5Z"></path> <path d="M152.24,209.7H134.61v-4.48h8.68v-4.17h4.46v4.14h4.49Z"></path> <path d="M174.29,183.17v4.48h-4.48v-4.48Z"></path> <path d="M165.56,183.2v-4.4h4.28v4.4Z"></path> <path d="M183.2,183.2h-8.94v-4.43h4.46v-4.51h4.48Z"></path> <path d="M187.71,165.63h4.35v4.16h4.41v4.44h-8.76Z"></path> <path d="M174.26,169.81h4.48v4.48h-4.48Z"></path> <path d="M187.69,183.23v-4.45H192v4.42h-4.34Z"></path> <path d="M183.17,187.65v-4.48l4.52.06,0,0v4.45Z"></path> <path d="M209.7,187.62l-4.48,0v-4.46h4.48l0,0v4.48Z"></path> <path d="M178.72,169.84v-4.28h4.39v4.28Z"></path> <path d="M77,107.9H81.4V99h8.87v4.45h4.51v8.87H90.35v9h-4.5v-4.43H77Z"></path> <path d="M94.75,85.85h8.73v8.93H99V90.35H94.75Z"></path> <path d="M103.45,94.75h8.93V99h-8.93Z"></path> <path d="M94.75,103.48V94.75H99v8.73Z"></path> <path d="M107.93,130.19h-4.48v-4.48h4.48Z"></path> <path d="M99,116.83v-4.39h4.37v4.36H99Z"></path> <path d="M99,116.8v4.4H94.83v-4.37H99Z"></path> <path d="M63.59,85.88V81.45H68V77h4.48v8.93Z"></path> <path d="M90.3,85.85v4.39H85.93V85.87h4.4Z"></path> <path d="M72.5,77V72.5H77V77Z"></path> <path d="M174.29,165.56v4.28h-4.48v-4.28Z"></path> <path d="M152.18,147.85v4.32h-4.32v-4.32Z"></path> <path d="M112.38,147.76v4.48H107.9v-4.48Z"></path> <path d="M94.75,63.59H99v4.48H94.75Z"></path> <path d="M231.93,236.41v-4.48h4.48v4.48Z"></path> <path d="M227.48,236.38H232v4.39h-4.48Z"></path> <path d="M209.7,254v-4.39h4.37V254h-4.4Z"></path> <path d="M77,214.12h4.48v4.4H77Z"></path> <path d="M178.74,50.44v4.45h4.46v8.65h-4.46V59.38h-4.39V50.44Z"></path> </svg> 