<?xml version="1.0" encoding="UTF-8"?>
<svg xmlns="http://www.w3.org/2000/svg" viewBox="0 0 5594 70">
  <defs>
    <style>
      .cls-1 {
        fill: #fff;
      }

      .cls-2 {
        fill: #bf0603;
      }
    </style>
  </defs>
  <g id="_Слой_2" data-name="Слой 2">
    <rect class="cls-2" x="-1.08" y="0" width="5595.08" height="70"/>
  </g>
  <g id="_Слой_1" data-name="Слой 1">
    <g>
      <path class="cls-1" d="m128.5,42.77c0,3.46-1.03,6.01-3.08,7.66s-5.15,2.48-9.3,2.48h-10.19V18.11h20.52v3.59h-16.47v11.26h5.4c3.06,0,5.55.35,7.47,1.06,1.92.71,3.34,1.75,4.26,3.13.92,1.38,1.38,3.25,1.38,5.62Zm-18.52,6.64h5.69c3.01,0,5.21-.52,6.58-1.55,1.37-1.03,2.06-2.73,2.06-5.09s-.7-3.86-2.09-4.81c-1.4-.95-3.83-1.43-7.31-1.43h-4.93v12.88Z"/>
      <path class="cls-1" d="m166.02,35.46c0,5.57-1.41,9.95-4.23,13.14-2.82,3.19-6.73,4.78-11.75,4.78s-9.08-1.57-11.87-4.7c-2.79-3.13-4.18-7.56-4.18-13.27s1.4-10.06,4.19-13.18c2.79-3.12,6.76-4.68,11.9-4.68s8.9,1.59,11.71,4.76c2.81,3.17,4.21,7.55,4.21,13.14Zm-27.73,0c0,4.71,1,8.29,3.01,10.72,2.01,2.44,4.92,3.65,8.75,3.65s6.77-1.21,8.74-3.64c1.97-2.43,2.95-6.01,2.95-10.74s-.98-8.23-2.94-10.65c-1.96-2.42-4.86-3.63-8.7-3.63s-6.79,1.22-8.8,3.65-3.01,5.98-3.01,10.63Z"/>
      <path class="cls-1" d="m198.53,52.91h-4.05v-31.21h-11.31l-.74,5.71c-.97,7.6-1.82,13.16-2.56,16.67-.74,3.52-1.71,5.96-2.92,7.34-1.21,1.38-2.81,2.05-4.81,2.02-1.17,0-2.23-.2-3.17-.59v-3.4c.86.41,1.75.62,2.69.62.84,0,1.57-.35,2.2-1.04.63-.69,1.18-1.89,1.67-3.59s1.09-4.94,1.83-9.71c.74-4.77,1.55-10.64,2.44-17.63h18.71v34.8Z"/>
      <path class="cls-1" d="m232.12,42.77c0,3.22-1.08,5.72-3.23,7.49-2.15,1.77-5.22,2.65-9.2,2.65h-11.59V18.11h4.05v14.85h6.93c4.24,0,7.47.84,9.7,2.51,2.23,1.67,3.34,4.11,3.34,7.3Zm-19.97,6.64h7.12c5.78,0,8.66-2.21,8.66-6.64,0-2.14-.74-3.72-2.23-4.73-1.48-1.01-3.86-1.51-7.13-1.51h-6.43v12.88Z"/>
      <path class="cls-1" d="m280.2,52.91h-40.75V18.11h4.05v31.14h14.28v-31.14h4.05v31.14h14.28v-31.14h4.09v34.8Z"/>
      <path class="cls-1" d="m309.17,52.91h-19.4V18.11h19.4v3.59h-15.35v11.21h14.43v3.57h-14.43v12.81h15.35v3.62Z"/>
      <path class="cls-1" d="m355.52,52.91h-4.05v-31.21h-17.88v31.21h-4.05V18.11h25.97v34.8Z"/>
      <path class="cls-1" d="m387.15,28.25c0,3.52-1.2,6.23-3.61,8.13-2.4,1.9-5.84,2.85-10.32,2.85h-4.09v13.69h-4.05V18.11h9.02c8.7,0,13.04,3.38,13.04,10.14Zm-18.02,7.5h3.64c3.59,0,6.18-.58,7.78-1.74,1.6-1.16,2.4-3.02,2.4-5.57,0-2.3-.75-4.01-2.26-5.14-1.51-1.13-3.86-1.69-7.05-1.69h-4.52v14.14Z"/>
      <path class="cls-1" d="m413.84,52.91h-19.4V18.11h19.4v3.59h-15.35v11.21h14.43v3.57h-14.43v12.81h15.35v3.62Z"/>
      <path class="cls-1" d="m449,61.98h-3.86v-9.07h-24.18v9.07h-3.86v-12.74h2.69c2.44-4.11,4.53-9.11,6.27-15,1.74-5.89,2.7-11.27,2.89-16.14h15.64v31.14h4.4v12.74Zm-8.45-12.74v-27.49h-7.93c-.29,3.84-1.25,8.45-2.88,13.84-1.63,5.39-3.54,9.94-5.71,13.65h16.52Z"/>
      <path class="cls-1" d="m479.61,52.91h-4.05v-31.21h-11.31l-.74,5.71c-.97,7.6-1.82,13.16-2.56,16.67-.74,3.52-1.71,5.96-2.92,7.34-1.21,1.38-2.81,2.05-4.81,2.02-1.17,0-2.23-.2-3.17-.59v-3.4c.86.41,1.75.62,2.69.62.84,0,1.57-.35,2.2-1.04.63-.69,1.18-1.89,1.67-3.59s1.09-4.94,1.83-9.71c.74-4.77,1.55-10.64,2.44-17.63h18.71v34.8Z"/>
      <path class="cls-1" d="m519.38,35.46c0,5.57-1.41,9.95-4.22,13.14-2.82,3.19-6.73,4.78-11.75,4.78s-9.08-1.57-11.87-4.7c-2.79-3.13-4.18-7.56-4.18-13.27s1.4-10.06,4.19-13.18c2.79-3.12,6.76-4.68,11.9-4.68s8.9,1.59,11.71,4.76c2.81,3.17,4.21,7.55,4.21,13.14Zm-27.73,0c0,4.71,1,8.29,3.01,10.72,2.01,2.44,4.92,3.65,8.75,3.65s6.77-1.21,8.74-3.64c1.97-2.43,2.95-6.01,2.95-10.74s-.98-8.23-2.94-10.65c-1.96-2.42-4.86-3.63-8.7-3.63s-6.79,1.22-8.8,3.65-3.01,5.98-3.01,10.63Z"/>
      <path class="cls-1" d="m536.59,35.01l-13.69-16.9h4.52l13.54,16.85v-16.85h3.9v16.85l13.57-16.85h4.52l-13.71,16.85,14.14,17.95h-4.67l-13.85-17.64v17.64h-3.9v-17.64l-13.83,17.64h-4.74l14.19-17.9Z"/>
      <path class="cls-1" d="m587.7,52.91h-19.4V18.11h19.4v3.59h-15.35v11.21h14.43v3.57h-14.43v12.81h15.35v3.62Z"/>
      <path class="cls-1" d="m621.83,52.91h-4.05v-16.38h-18.33v16.38h-4.05V18.11h4.05v14.81h18.33v-14.81h4.05v34.8Z"/>
      <path class="cls-1" d="m631.43,18.11h3.78v19.35c0,3.57-.11,6.8-.33,9.69h.19l19.52-29.04h4.43v34.8h-3.81v-19.16c0-3.19.13-6.54.4-10.04h-.21l-19.54,29.21h-4.43V18.11Z"/>
      <path class="cls-1" d="m668.58,18.11h3.78v19.35c0,3.57-.11,6.8-.33,9.69h.19l19.52-29.04h4.43v34.8h-3.81v-19.16c0-3.19.13-6.54.4-10.04h-.21l-19.54,29.21h-4.43V18.11Zm14.43-2.78c-2.94,0-5.08-.57-6.43-1.7-1.35-1.13-2.1-3-2.26-5.61h3.71c.14,1.65.58,2.8,1.3,3.45.72.65,1.98.98,3.77.98,1.63,0,2.84-.35,3.63-1.05.79-.7,1.27-1.82,1.44-3.38h3.74c-.19,2.51-.99,4.35-2.4,5.53-1.41,1.18-3.58,1.77-6.5,1.77Z"/>
    </g>
    <g>
      <path class="cls-1" d="m825.95,42.77c0,3.46-1.03,6.01-3.08,7.66s-5.15,2.48-9.3,2.48h-10.19V18.11h20.52v3.59h-16.47v11.26h5.4c3.06,0,5.55.35,7.47,1.06,1.92.71,3.34,1.75,4.26,3.13.92,1.38,1.38,3.25,1.38,5.62Zm-18.52,6.64h5.69c3.01,0,5.21-.52,6.58-1.55,1.37-1.03,2.06-2.73,2.06-5.09s-.7-3.86-2.09-4.81c-1.4-.95-3.83-1.43-7.31-1.43h-4.93v12.88Z"/>
      <path class="cls-1" d="m863.47,35.46c0,5.57-1.41,9.95-4.22,13.14-2.82,3.19-6.73,4.78-11.75,4.78s-9.08-1.57-11.87-4.7c-2.79-3.13-4.18-7.56-4.18-13.27s1.4-10.06,4.19-13.18c2.79-3.12,6.76-4.68,11.9-4.68s8.9,1.59,11.71,4.76c2.81,3.17,4.21,7.55,4.21,13.14Zm-27.73,0c0,4.71,1,8.29,3.01,10.72,2.01,2.44,4.92,3.65,8.75,3.65s6.77-1.21,8.74-3.64c1.97-2.43,2.95-6.01,2.95-10.74s-.98-8.23-2.94-10.65c-1.96-2.42-4.86-3.63-8.7-3.63s-6.79,1.22-8.8,3.65-3.01,5.98-3.01,10.63Z"/>
      <path class="cls-1" d="m895.98,52.91h-4.05v-31.21h-11.31l-.74,5.71c-.97,7.6-1.82,13.16-2.56,16.67-.74,3.52-1.71,5.96-2.92,7.34-1.21,1.38-2.81,2.05-4.81,2.02-1.17,0-2.23-.2-3.17-.59v-3.4c.86.41,1.75.62,2.69.62.84,0,1.57-.35,2.2-1.04.63-.69,1.18-1.89,1.67-3.59s1.09-4.94,1.83-9.71c.74-4.77,1.55-10.64,2.44-17.63h18.71v34.8Z"/>
      <path class="cls-1" d="m929.57,42.77c0,3.22-1.08,5.72-3.23,7.49-2.15,1.77-5.22,2.65-9.2,2.65h-11.59V18.11h4.05v14.85h6.93c4.24,0,7.47.84,9.7,2.51,2.23,1.67,3.34,4.11,3.34,7.3Zm-19.97,6.64h7.12c5.78,0,8.66-2.21,8.66-6.64,0-2.14-.74-3.72-2.23-4.73-1.48-1.01-3.86-1.51-7.13-1.51h-6.43v12.88Z"/>
      <path class="cls-1" d="m977.65,52.91h-40.75V18.11h4.05v31.14h14.28v-31.14h4.05v31.14h14.28v-31.14h4.09v34.8Z"/>
      <path class="cls-1" d="m1006.62,52.91h-19.4V18.11h19.4v3.59h-15.35v11.21h14.43v3.57h-14.43v12.81h15.35v3.62Z"/>
      <path class="cls-1" d="m1052.97,52.91h-4.05v-31.21h-17.88v31.21h-4.05V18.11h25.97v34.8Z"/>
      <path class="cls-1" d="m1084.6,28.25c0,3.52-1.2,6.23-3.61,8.13-2.4,1.9-5.84,2.85-10.32,2.85h-4.09v13.69h-4.05V18.11h9.02c8.7,0,13.04,3.38,13.04,10.14Zm-18.02,7.5h3.64c3.59,0,6.18-.58,7.78-1.74,1.6-1.16,2.4-3.02,2.4-5.57,0-2.3-.75-4.01-2.26-5.14-1.51-1.13-3.86-1.69-7.05-1.69h-4.52v14.14Z"/>
      <path class="cls-1" d="m1111.29,52.91h-19.4V18.11h19.4v3.59h-15.35v11.21h14.43v3.57h-14.43v12.81h15.35v3.62Z"/>
      <path class="cls-1" d="m1146.45,61.98h-3.86v-9.07h-24.18v9.07h-3.86v-12.74h2.69c2.44-4.11,4.53-9.11,6.27-15,1.74-5.89,2.7-11.27,2.89-16.14h15.64v31.14h4.4v12.74Zm-8.45-12.74v-27.49h-7.93c-.29,3.84-1.25,8.45-2.88,13.84-1.63,5.39-3.54,9.94-5.71,13.65h16.52Z"/>
      <path class="cls-1" d="m1177.06,52.91h-4.05v-31.21h-11.31l-.74,5.71c-.97,7.6-1.82,13.16-2.56,16.67-.74,3.52-1.71,5.96-2.92,7.34-1.21,1.38-2.81,2.05-4.81,2.02-1.17,0-2.23-.2-3.17-.59v-3.4c.86.41,1.75.62,2.69.62.84,0,1.57-.35,2.2-1.04.63-.69,1.18-1.89,1.67-3.59s1.09-4.94,1.83-9.71c.74-4.77,1.55-10.64,2.44-17.63h18.71v34.8Z"/>
      <path class="cls-1" d="m1216.83,35.46c0,5.57-1.41,9.95-4.22,13.14-2.82,3.19-6.73,4.78-11.75,4.78s-9.08-1.57-11.87-4.7c-2.79-3.13-4.18-7.56-4.18-13.27s1.4-10.06,4.19-13.18c2.79-3.12,6.76-4.68,11.9-4.68s8.9,1.59,11.71,4.76c2.81,3.17,4.21,7.55,4.21,13.14Zm-27.73,0c0,4.71,1,8.29,3.01,10.72,2.01,2.44,4.92,3.65,8.75,3.65s6.77-1.21,8.74-3.64c1.97-2.43,2.95-6.01,2.95-10.74s-.98-8.23-2.94-10.65c-1.96-2.42-4.86-3.63-8.7-3.63s-6.79,1.22-8.8,3.65-3.01,5.98-3.01,10.63Z"/>
      <path class="cls-1" d="m1234.04,35.01l-13.69-16.9h4.52l13.54,16.85v-16.85h3.9v16.85l13.57-16.85h4.52l-13.71,16.85,14.14,17.95h-4.67l-13.85-17.64v17.64h-3.9v-17.64l-13.83,17.64h-4.74l14.19-17.9Z"/>
      <path class="cls-1" d="m1285.15,52.91h-19.4V18.11h19.4v3.59h-15.35v11.21h14.43v3.57h-14.43v12.81h15.35v3.62Z"/>
      <path class="cls-1" d="m1319.28,52.91h-4.05v-16.38h-18.33v16.38h-4.05V18.11h4.05v14.81h18.33v-14.81h4.05v34.8Z"/>
      <path class="cls-1" d="m1328.88,18.11h3.78v19.35c0,3.57-.11,6.8-.33,9.69h.19l19.52-29.04h4.43v34.8h-3.81v-19.16c0-3.19.13-6.54.4-10.04h-.21l-19.54,29.21h-4.43V18.11Z"/>
      <path class="cls-1" d="m1366.03,18.11h3.78v19.35c0,3.57-.11,6.8-.33,9.69h.19l19.52-29.04h4.43v34.8h-3.81v-19.16c0-3.19.13-6.54.4-10.04h-.21l-19.54,29.21h-4.43V18.11Zm14.43-2.78c-2.94,0-5.08-.57-6.43-1.7-1.35-1.13-2.1-3-2.26-5.61h3.71c.14,1.65.58,2.8,1.3,3.45.72.65,1.98.98,3.77.98,1.63,0,2.84-.35,3.63-1.05.79-.7,1.27-1.82,1.44-3.38h3.74c-.19,2.51-.99,4.35-2.4,5.53-1.41,1.18-3.58,1.77-6.5,1.77Z"/>
    </g>
    <polygon class="cls-1" points="749.43 10 774.25 34.82 749.43 59.64 749.43 55.05 768.03 36.45 725.53 36.45 728.79 33.2 768.03 33.2 749.43 14.6 749.43 10"/>
    <polygon class="cls-1" points="27.46 34.82 52.28 10 77.1 34.82 72.5 34.82 53.91 16.23 53.91 58.72 50.65 55.47 50.65 16.23 32.06 34.82 27.46 34.82"/>
    <g>
      <path class="cls-1" d="m1523.4,42.77c0,3.46-1.03,6.01-3.08,7.66s-5.15,2.48-9.3,2.48h-10.19V18.11h20.52v3.59h-16.47v11.26h5.4c3.06,0,5.55.35,7.47,1.06,1.92.71,3.34,1.75,4.26,3.13.92,1.38,1.38,3.25,1.38,5.62Zm-18.52,6.64h5.69c3.01,0,5.21-.52,6.58-1.55,1.37-1.03,2.06-2.73,2.06-5.09s-.7-3.86-2.09-4.81c-1.4-.95-3.83-1.43-7.31-1.43h-4.93v12.88Z"/>
      <path class="cls-1" d="m1560.92,35.46c0,5.57-1.41,9.95-4.23,13.14-2.82,3.19-6.73,4.78-11.75,4.78s-9.08-1.57-11.87-4.7c-2.79-3.13-4.18-7.56-4.18-13.27s1.4-10.06,4.19-13.18c2.79-3.12,6.76-4.68,11.9-4.68s8.9,1.59,11.71,4.76c2.81,3.17,4.21,7.55,4.21,13.14Zm-27.73,0c0,4.71,1,8.29,3.01,10.72,2.01,2.44,4.92,3.65,8.75,3.65s6.77-1.21,8.74-3.64c1.97-2.43,2.95-6.01,2.95-10.74s-.98-8.23-2.94-10.65c-1.96-2.42-4.86-3.63-8.7-3.63s-6.79,1.22-8.8,3.65-3.01,5.98-3.01,10.63Z"/>
      <path class="cls-1" d="m1593.43,52.91h-4.05v-31.21h-11.31l-.74,5.71c-.97,7.6-1.82,13.16-2.56,16.67-.74,3.52-1.71,5.96-2.92,7.34-1.21,1.38-2.81,2.05-4.81,2.02-1.17,0-2.23-.2-3.17-.59v-3.4c.86.41,1.75.62,2.69.62.84,0,1.57-.35,2.2-1.04.63-.69,1.18-1.89,1.67-3.59s1.09-4.94,1.83-9.71c.74-4.77,1.55-10.64,2.44-17.63h18.71v34.8Z"/>
      <path class="cls-1" d="m1627.02,42.77c0,3.22-1.08,5.72-3.23,7.49-2.15,1.77-5.22,2.65-9.2,2.65h-11.59V18.11h4.05v14.85h6.93c4.24,0,7.47.84,9.7,2.51,2.23,1.67,3.34,4.11,3.34,7.3Zm-19.97,6.64h7.12c5.78,0,8.66-2.21,8.66-6.64,0-2.14-.74-3.72-2.23-4.73-1.48-1.01-3.86-1.51-7.13-1.51h-6.43v12.88Z"/>
      <path class="cls-1" d="m1675.1,52.91h-40.75V18.11h4.05v31.14h14.28v-31.14h4.05v31.14h14.28v-31.14h4.09v34.8Z"/>
      <path class="cls-1" d="m1704.07,52.91h-19.4V18.11h19.4v3.59h-15.35v11.21h14.43v3.57h-14.43v12.81h15.35v3.62Z"/>
      <path class="cls-1" d="m1750.42,52.91h-4.05v-31.21h-17.88v31.21h-4.05V18.11h25.97v34.8Z"/>
      <path class="cls-1" d="m1782.05,28.25c0,3.52-1.2,6.23-3.61,8.13-2.4,1.9-5.84,2.85-10.32,2.85h-4.09v13.69h-4.05V18.11h9.02c8.7,0,13.04,3.38,13.04,10.14Zm-18.02,7.5h3.64c3.59,0,6.18-.58,7.78-1.74,1.6-1.16,2.4-3.02,2.4-5.57,0-2.3-.75-4.01-2.26-5.14-1.51-1.13-3.86-1.69-7.05-1.69h-4.52v14.14Z"/>
      <path class="cls-1" d="m1808.74,52.91h-19.4V18.11h19.4v3.59h-15.35v11.21h14.43v3.57h-14.43v12.81h15.35v3.62Z"/>
      <path class="cls-1" d="m1843.9,61.98h-3.86v-9.07h-24.18v9.07h-3.86v-12.74h2.69c2.44-4.11,4.53-9.11,6.27-15,1.74-5.89,2.7-11.27,2.89-16.14h15.64v31.14h4.4v12.74Zm-8.45-12.74v-27.49h-7.93c-.29,3.84-1.25,8.45-2.88,13.84-1.63,5.39-3.54,9.94-5.71,13.65h16.52Z"/>
      <path class="cls-1" d="m1874.51,52.91h-4.05v-31.21h-11.31l-.74,5.71c-.97,7.6-1.82,13.16-2.56,16.67-.74,3.52-1.71,5.96-2.92,7.34-1.21,1.38-2.81,2.05-4.81,2.02-1.17,0-2.23-.2-3.17-.59v-3.4c.86.41,1.75.62,2.69.62.84,0,1.57-.35,2.2-1.04.63-.69,1.18-1.89,1.67-3.59s1.09-4.94,1.83-9.71c.74-4.77,1.55-10.64,2.44-17.63h18.71v34.8Z"/>
      <path class="cls-1" d="m1914.28,35.46c0,5.57-1.41,9.95-4.23,13.14-2.82,3.19-6.73,4.78-11.75,4.78s-9.08-1.57-11.87-4.7c-2.79-3.13-4.18-7.56-4.18-13.27s1.4-10.06,4.19-13.18c2.79-3.12,6.76-4.68,11.9-4.68s8.9,1.59,11.71,4.76c2.81,3.17,4.21,7.55,4.21,13.14Zm-27.73,0c0,4.71,1,8.29,3.01,10.72,2.01,2.44,4.92,3.65,8.75,3.65s6.77-1.21,8.74-3.64c1.97-2.43,2.95-6.01,2.95-10.74s-.98-8.23-2.94-10.65c-1.96-2.42-4.86-3.63-8.7-3.63s-6.79,1.22-8.8,3.65-3.01,5.98-3.01,10.63Z"/>
      <path class="cls-1" d="m1931.49,35.01l-13.69-16.9h4.52l13.54,16.85v-16.85h3.9v16.85l13.57-16.85h4.52l-13.71,16.85,14.14,17.95h-4.67l-13.85-17.64v17.64h-3.9v-17.64l-13.83,17.64h-4.74l14.19-17.9Z"/>
      <path class="cls-1" d="m1982.6,52.91h-19.4V18.11h19.4v3.59h-15.35v11.21h14.43v3.57h-14.43v12.81h15.35v3.62Z"/>
      <path class="cls-1" d="m2016.73,52.91h-4.05v-16.38h-18.33v16.38h-4.05V18.11h4.05v14.81h18.33v-14.81h4.05v34.8Z"/>
      <path class="cls-1" d="m2026.33,18.11h3.78v19.35c0,3.57-.11,6.8-.33,9.69h.19l19.52-29.04h4.43v34.8h-3.81v-19.16c0-3.19.13-6.54.4-10.04h-.21l-19.54,29.21h-4.43V18.11Z"/>
      <path class="cls-1" d="m2063.48,18.11h3.78v19.35c0,3.57-.11,6.8-.33,9.69h.19l19.52-29.04h4.43v34.8h-3.81v-19.16c0-3.19.13-6.54.4-10.04h-.21l-19.54,29.21h-4.43V18.11Zm14.43-2.78c-2.94,0-5.08-.57-6.43-1.7-1.35-1.13-2.1-3-2.26-5.61h3.71c.14,1.65.58,2.8,1.3,3.45.72.65,1.98.98,3.77.98,1.63,0,2.84-.35,3.63-1.05.79-.7,1.27-1.82,1.44-3.38h3.74c-.19,2.51-.99,4.35-2.4,5.53-1.41,1.18-3.58,1.77-6.5,1.77Z"/>
    </g>
    <polygon class="cls-1" points="1464.51 17.45 1464.51 52.55 1429.41 52.55 1432.66 49.3 1458.96 49.3 1428.91 19.25 1433.51 19.25 1461.26 47 1461.26 20.7 1464.51 17.45"/>
    <g>
      <path class="cls-1" d="m2220.85,42.77c0,3.46-1.03,6.01-3.08,7.66s-5.15,2.48-9.3,2.48h-10.19V18.11h20.52v3.59h-16.47v11.26h5.4c3.06,0,5.55.35,7.47,1.06,1.92.71,3.34,1.75,4.26,3.13.92,1.38,1.38,3.25,1.38,5.62Zm-18.52,6.64h5.69c3.01,0,5.21-.52,6.58-1.55,1.37-1.03,2.06-2.73,2.06-5.09s-.7-3.86-2.09-4.81c-1.4-.95-3.83-1.43-7.31-1.43h-4.93v12.88Z"/>
      <path class="cls-1" d="m2258.37,35.46c0,5.57-1.41,9.95-4.23,13.14-2.82,3.19-6.73,4.78-11.75,4.78s-9.08-1.57-11.87-4.7c-2.79-3.13-4.18-7.56-4.18-13.27s1.4-10.06,4.19-13.18c2.79-3.12,6.76-4.68,11.9-4.68s8.9,1.59,11.71,4.76c2.81,3.17,4.21,7.55,4.21,13.14Zm-27.73,0c0,4.71,1,8.29,3.01,10.72,2.01,2.44,4.92,3.65,8.75,3.65s6.77-1.21,8.74-3.64c1.97-2.43,2.95-6.01,2.95-10.74s-.98-8.23-2.94-10.65c-1.96-2.42-4.86-3.63-8.7-3.63s-6.79,1.22-8.8,3.65-3.01,5.98-3.01,10.63Z"/>
      <path class="cls-1" d="m2290.88,52.91h-4.05v-31.21h-11.31l-.74,5.71c-.97,7.6-1.82,13.16-2.56,16.67-.74,3.52-1.71,5.96-2.92,7.34-1.21,1.38-2.81,2.05-4.81,2.02-1.17,0-2.23-.2-3.17-.59v-3.4c.86.41,1.75.62,2.69.62.84,0,1.57-.35,2.2-1.04.63-.69,1.18-1.89,1.67-3.59s1.09-4.94,1.83-9.71c.74-4.77,1.55-10.64,2.44-17.63h18.71v34.8Z"/>
      <path class="cls-1" d="m2324.47,42.77c0,3.22-1.08,5.72-3.23,7.49-2.15,1.77-5.22,2.65-9.2,2.65h-11.59V18.11h4.05v14.85h6.93c4.24,0,7.47.84,9.7,2.51,2.23,1.67,3.34,4.11,3.34,7.3Zm-19.97,6.64h7.12c5.78,0,8.66-2.21,8.66-6.64,0-2.14-.74-3.72-2.23-4.73-1.48-1.01-3.86-1.51-7.13-1.51h-6.43v12.88Z"/>
      <path class="cls-1" d="m2372.55,52.91h-40.75V18.11h4.05v31.14h14.28v-31.14h4.05v31.14h14.28v-31.14h4.09v34.8Z"/>
      <path class="cls-1" d="m2401.52,52.91h-19.4V18.11h19.4v3.59h-15.35v11.21h14.43v3.57h-14.43v12.81h15.35v3.62Z"/>
      <path class="cls-1" d="m2447.87,52.91h-4.05v-31.21h-17.88v31.21h-4.05V18.11h25.97v34.8Z"/>
      <path class="cls-1" d="m2479.5,28.25c0,3.52-1.2,6.23-3.61,8.13-2.4,1.9-5.84,2.85-10.32,2.85h-4.09v13.69h-4.05V18.11h9.02c8.7,0,13.04,3.38,13.04,10.14Zm-18.02,7.5h3.64c3.59,0,6.18-.58,7.78-1.74,1.6-1.16,2.4-3.02,2.4-5.57,0-2.3-.75-4.01-2.26-5.14-1.51-1.13-3.86-1.69-7.05-1.69h-4.52v14.14Z"/>
      <path class="cls-1" d="m2506.19,52.91h-19.4V18.11h19.4v3.59h-15.35v11.21h14.43v3.57h-14.43v12.81h15.35v3.62Z"/>
      <path class="cls-1" d="m2541.35,61.98h-3.86v-9.07h-24.18v9.07h-3.86v-12.74h2.69c2.44-4.11,4.53-9.11,6.27-15,1.74-5.89,2.7-11.27,2.89-16.14h15.64v31.14h4.4v12.74Zm-8.45-12.74v-27.49h-7.93c-.29,3.84-1.25,8.45-2.88,13.84-1.63,5.39-3.54,9.94-5.71,13.65h16.52Z"/>
      <path class="cls-1" d="m2571.96,52.91h-4.05v-31.21h-11.31l-.74,5.71c-.97,7.6-1.82,13.16-2.56,16.67-.74,3.52-1.71,5.96-2.92,7.34-1.21,1.38-2.81,2.05-4.81,2.02-1.17,0-2.23-.2-3.17-.59v-3.4c.86.41,1.75.62,2.69.62.84,0,1.57-.35,2.2-1.04.63-.69,1.18-1.89,1.67-3.59s1.09-4.94,1.83-9.71c.74-4.77,1.55-10.64,2.44-17.63h18.71v34.8Z"/>
      <path class="cls-1" d="m2611.73,35.46c0,5.57-1.41,9.95-4.23,13.14-2.82,3.19-6.73,4.78-11.75,4.78s-9.08-1.57-11.87-4.7c-2.79-3.13-4.18-7.56-4.18-13.27s1.4-10.06,4.19-13.18c2.79-3.12,6.76-4.68,11.9-4.68s8.9,1.59,11.71,4.76c2.81,3.17,4.21,7.55,4.21,13.14Zm-27.73,0c0,4.71,1,8.29,3.01,10.72,2.01,2.44,4.92,3.65,8.75,3.65s6.77-1.21,8.74-3.64c1.97-2.43,2.95-6.01,2.95-10.74s-.98-8.23-2.94-10.65c-1.96-2.42-4.86-3.63-8.7-3.63s-6.79,1.22-8.8,3.65-3.01,5.98-3.01,10.63Z"/>
      <path class="cls-1" d="m2628.94,35.01l-13.69-16.9h4.52l13.54,16.85v-16.85h3.9v16.85l13.57-16.85h4.52l-13.71,16.85,14.14,17.95h-4.67l-13.85-17.64v17.64h-3.9v-17.64l-13.83,17.64h-4.74l14.19-17.9Z"/>
      <path class="cls-1" d="m2680.05,52.91h-19.4V18.11h19.4v3.59h-15.35v11.21h14.43v3.57h-14.43v12.81h15.35v3.62Z"/>
      <path class="cls-1" d="m2714.18,52.91h-4.05v-16.38h-18.33v16.38h-4.05V18.11h4.05v14.81h18.33v-14.81h4.05v34.8Z"/>
      <path class="cls-1" d="m2723.78,18.11h3.78v19.35c0,3.57-.11,6.8-.33,9.69h.19l19.52-29.04h4.43v34.8h-3.81v-19.16c0-3.19.13-6.54.4-10.04h-.21l-19.54,29.21h-4.43V18.11Z"/>
      <path class="cls-1" d="m2760.93,18.11h3.78v19.35c0,3.57-.11,6.8-.33,9.69h.19l19.52-29.04h4.43v34.8h-3.81v-19.16c0-3.19.13-6.54.4-10.04h-.21l-19.54,29.21h-4.43V18.11Zm14.43-2.78c-2.94,0-5.08-.57-6.43-1.7-1.35-1.13-2.1-3-2.26-5.61h3.71c.14,1.65.58,2.8,1.3,3.45.72.65,1.98.98,3.77.98,1.63,0,2.84-.35,3.63-1.05.79-.7,1.27-1.82,1.44-3.38h3.74c-.19,2.51-.99,4.35-2.4,5.53-1.41,1.18-3.58,1.77-6.5,1.77Z"/>
    </g>
    <polygon class="cls-1" points="2119.16 34.82 2143.98 10 2168.8 34.82 2164.2 34.82 2145.61 16.23 2145.61 58.72 2142.35 55.47 2142.35 16.23 2123.76 34.82 2119.16 34.82"/>
    <g>
      <path class="cls-1" d="m2917.5,42.77c0,3.46-1.03,6.01-3.08,7.66s-5.15,2.48-9.3,2.48h-10.19V18.11h20.52v3.59h-16.47v11.26h5.4c3.06,0,5.55.35,7.47,1.06,1.92.71,3.34,1.75,4.26,3.13.92,1.38,1.38,3.25,1.38,5.62Zm-18.52,6.64h5.69c3.01,0,5.21-.52,6.58-1.55,1.37-1.03,2.06-2.73,2.06-5.09s-.7-3.86-2.09-4.81c-1.4-.95-3.83-1.43-7.31-1.43h-4.93v12.88Z"/>
      <path class="cls-1" d="m2955.02,35.46c0,5.57-1.41,9.95-4.23,13.14-2.82,3.19-6.73,4.78-11.75,4.78s-9.08-1.57-11.87-4.7c-2.79-3.13-4.18-7.56-4.18-13.27s1.4-10.06,4.19-13.18c2.79-3.12,6.76-4.68,11.9-4.68s8.9,1.59,11.71,4.76c2.81,3.17,4.21,7.55,4.21,13.14Zm-27.73,0c0,4.71,1,8.29,3.01,10.72,2.01,2.44,4.92,3.65,8.75,3.65s6.77-1.21,8.74-3.64c1.97-2.43,2.95-6.01,2.95-10.74s-.98-8.23-2.94-10.65c-1.96-2.42-4.86-3.63-8.7-3.63s-6.79,1.22-8.8,3.65-3.01,5.98-3.01,10.63Z"/>
      <path class="cls-1" d="m2987.53,52.91h-4.05v-31.21h-11.31l-.74,5.71c-.97,7.6-1.82,13.16-2.56,16.67-.74,3.52-1.71,5.96-2.92,7.34-1.21,1.38-2.81,2.05-4.81,2.02-1.17,0-2.23-.2-3.17-.59v-3.4c.86.41,1.75.62,2.69.62.84,0,1.57-.35,2.2-1.04.63-.69,1.18-1.89,1.67-3.59s1.09-4.94,1.83-9.71c.74-4.77,1.55-10.64,2.44-17.63h18.71v34.8Z"/>
      <path class="cls-1" d="m3021.12,42.77c0,3.22-1.08,5.72-3.23,7.49-2.15,1.77-5.22,2.65-9.2,2.65h-11.59V18.11h4.05v14.85h6.93c4.24,0,7.47.84,9.7,2.51,2.23,1.67,3.34,4.11,3.34,7.3Zm-19.97,6.64h7.12c5.78,0,8.66-2.21,8.66-6.64,0-2.14-.74-3.72-2.23-4.73-1.48-1.01-3.86-1.51-7.13-1.51h-6.43v12.88Z"/>
      <path class="cls-1" d="m3069.2,52.91h-40.75V18.11h4.05v31.14h14.28v-31.14h4.05v31.14h14.28v-31.14h4.09v34.8Z"/>
      <path class="cls-1" d="m3098.17,52.91h-19.4V18.11h19.4v3.59h-15.35v11.21h14.43v3.57h-14.43v12.81h15.35v3.62Z"/>
      <path class="cls-1" d="m3144.52,52.91h-4.05v-31.21h-17.88v31.21h-4.05V18.11h25.97v34.8Z"/>
      <path class="cls-1" d="m3176.15,28.25c0,3.52-1.2,6.23-3.61,8.13-2.4,1.9-5.84,2.85-10.32,2.85h-4.09v13.69h-4.05V18.11h9.02c8.7,0,13.04,3.38,13.04,10.14Zm-18.02,7.5h3.64c3.59,0,6.18-.58,7.78-1.74,1.6-1.16,2.4-3.02,2.4-5.57,0-2.3-.75-4.01-2.26-5.14-1.51-1.13-3.86-1.69-7.05-1.69h-4.52v14.14Z"/>
      <path class="cls-1" d="m3202.84,52.91h-19.4V18.11h19.4v3.59h-15.35v11.21h14.43v3.57h-14.43v12.81h15.35v3.62Z"/>
      <path class="cls-1" d="m3238,61.98h-3.86v-9.07h-24.18v9.07h-3.86v-12.74h2.69c2.44-4.11,4.53-9.11,6.27-15,1.74-5.89,2.7-11.27,2.89-16.14h15.64v31.14h4.4v12.74Zm-8.45-12.74v-27.49h-7.93c-.29,3.84-1.25,8.45-2.88,13.84-1.63,5.39-3.54,9.94-5.71,13.65h16.52Z"/>
      <path class="cls-1" d="m3268.61,52.91h-4.05v-31.21h-11.31l-.74,5.71c-.97,7.6-1.82,13.16-2.56,16.67-.74,3.52-1.71,5.96-2.92,7.34-1.21,1.38-2.81,2.05-4.81,2.02-1.17,0-2.23-.2-3.17-.59v-3.4c.86.41,1.75.62,2.69.62.84,0,1.57-.35,2.2-1.04.63-.69,1.18-1.89,1.67-3.59s1.09-4.94,1.83-9.71c.74-4.77,1.55-10.64,2.44-17.63h18.71v34.8Z"/>
      <path class="cls-1" d="m3308.38,35.46c0,5.57-1.41,9.95-4.22,13.14-2.82,3.19-6.73,4.78-11.75,4.78s-9.08-1.57-11.87-4.7c-2.79-3.13-4.18-7.56-4.18-13.27s1.4-10.06,4.19-13.18c2.79-3.12,6.76-4.68,11.9-4.68s8.9,1.59,11.71,4.76c2.81,3.17,4.21,7.55,4.21,13.14Zm-27.73,0c0,4.71,1,8.29,3.01,10.72,2.01,2.44,4.92,3.65,8.75,3.65s6.77-1.21,8.74-3.64c1.97-2.43,2.95-6.01,2.95-10.74s-.98-8.23-2.94-10.65c-1.96-2.42-4.86-3.63-8.7-3.63s-6.79,1.22-8.8,3.65-3.01,5.98-3.01,10.63Z"/>
      <path class="cls-1" d="m3325.59,35.01l-13.69-16.9h4.52l13.54,16.85v-16.85h3.9v16.85l13.57-16.85h4.52l-13.71,16.85,14.14,17.95h-4.67l-13.85-17.64v17.64h-3.9v-17.64l-13.83,17.64h-4.74l14.19-17.9Z"/>
      <path class="cls-1" d="m3376.7,52.91h-19.4V18.11h19.4v3.59h-15.35v11.21h14.43v3.57h-14.43v12.81h15.35v3.62Z"/>
      <path class="cls-1" d="m3410.83,52.91h-4.05v-16.38h-18.33v16.38h-4.05V18.11h4.05v14.81h18.33v-14.81h4.05v34.8Z"/>
      <path class="cls-1" d="m3420.43,18.11h3.78v19.35c0,3.57-.11,6.8-.33,9.69h.19l19.52-29.04h4.43v34.8h-3.81v-19.16c0-3.19.13-6.54.4-10.04h-.21l-19.54,29.21h-4.43V18.11Z"/>
      <path class="cls-1" d="m3457.58,18.11h3.78v19.35c0,3.57-.11,6.8-.33,9.69h.19l19.52-29.04h4.43v34.8h-3.81v-19.16c0-3.19.13-6.54.4-10.04h-.21l-19.54,29.21h-4.43V18.11Zm14.43-2.78c-2.94,0-5.08-.57-6.43-1.7-1.35-1.13-2.1-3-2.26-5.61h3.71c.14,1.65.58,2.8,1.3,3.45.72.65,1.98.98,3.77.98,1.63,0,2.84-.35,3.63-1.05.79-.7,1.27-1.82,1.44-3.38h3.74c-.19,2.51-.99,4.35-2.4,5.53-1.41,1.18-3.58,1.77-6.5,1.77Z"/>
    </g>
    <g>
      <path class="cls-1" d="m3614.95,42.77c0,3.46-1.03,6.01-3.08,7.66s-5.15,2.48-9.3,2.48h-10.19V18.11h20.52v3.59h-16.47v11.26h5.4c3.06,0,5.55.35,7.47,1.06,1.92.71,3.34,1.75,4.26,3.13.92,1.38,1.38,3.25,1.38,5.62Zm-18.52,6.64h5.69c3.01,0,5.21-.52,6.58-1.55,1.37-1.03,2.06-2.73,2.06-5.09s-.7-3.86-2.09-4.81c-1.4-.95-3.83-1.43-7.31-1.43h-4.93v12.88Z"/>
      <path class="cls-1" d="m3652.47,35.46c0,5.57-1.41,9.95-4.23,13.14-2.82,3.19-6.73,4.78-11.75,4.78s-9.08-1.57-11.87-4.7c-2.79-3.13-4.18-7.56-4.18-13.27s1.4-10.06,4.19-13.18c2.79-3.12,6.76-4.68,11.9-4.68s8.9,1.59,11.71,4.76c2.81,3.17,4.21,7.55,4.21,13.14Zm-27.73,0c0,4.71,1,8.29,3.01,10.72,2.01,2.44,4.92,3.65,8.75,3.65s6.77-1.21,8.74-3.64c1.97-2.43,2.95-6.01,2.95-10.74s-.98-8.23-2.94-10.65c-1.96-2.42-4.86-3.63-8.7-3.63s-6.79,1.22-8.8,3.65-3.01,5.98-3.01,10.63Z"/>
      <path class="cls-1" d="m3684.98,52.91h-4.05v-31.21h-11.31l-.74,5.71c-.97,7.6-1.82,13.16-2.56,16.67-.74,3.52-1.71,5.96-2.92,7.34-1.21,1.38-2.81,2.05-4.81,2.02-1.17,0-2.23-.2-3.17-.59v-3.4c.86.41,1.75.62,2.69.62.84,0,1.57-.35,2.2-1.04.63-.69,1.18-1.89,1.67-3.59s1.09-4.94,1.83-9.71c.74-4.77,1.55-10.64,2.44-17.63h18.71v34.8Z"/>
      <path class="cls-1" d="m3718.57,42.77c0,3.22-1.08,5.72-3.23,7.49-2.15,1.77-5.22,2.65-9.2,2.65h-11.59V18.11h4.05v14.85h6.93c4.24,0,7.47.84,9.7,2.51,2.23,1.67,3.34,4.11,3.34,7.3Zm-19.97,6.64h7.12c5.78,0,8.66-2.21,8.66-6.64,0-2.14-.74-3.72-2.23-4.73-1.48-1.01-3.86-1.51-7.13-1.51h-6.43v12.88Z"/>
      <path class="cls-1" d="m3766.65,52.91h-40.75V18.11h4.05v31.14h14.28v-31.14h4.05v31.14h14.28v-31.14h4.09v34.8Z"/>
      <path class="cls-1" d="m3795.62,52.91h-19.4V18.11h19.4v3.59h-15.35v11.21h14.43v3.57h-14.43v12.81h15.35v3.62Z"/>
      <path class="cls-1" d="m3841.97,52.91h-4.05v-31.21h-17.88v31.21h-4.05V18.11h25.97v34.8Z"/>
      <path class="cls-1" d="m3873.6,28.25c0,3.52-1.2,6.23-3.61,8.13-2.4,1.9-5.84,2.85-10.32,2.85h-4.09v13.69h-4.05V18.11h9.02c8.7,0,13.04,3.38,13.04,10.14Zm-18.02,7.5h3.64c3.59,0,6.18-.58,7.78-1.74,1.6-1.16,2.4-3.02,2.4-5.57,0-2.3-.75-4.01-2.26-5.14-1.51-1.13-3.86-1.69-7.05-1.69h-4.52v14.14Z"/>
      <path class="cls-1" d="m3900.29,52.91h-19.4V18.11h19.4v3.59h-15.35v11.21h14.43v3.57h-14.43v12.81h15.35v3.62Z"/>
      <path class="cls-1" d="m3935.45,61.98h-3.86v-9.07h-24.18v9.07h-3.86v-12.74h2.69c2.44-4.11,4.53-9.11,6.27-15,1.74-5.89,2.7-11.27,2.89-16.14h15.64v31.14h4.4v12.74Zm-8.45-12.74v-27.49h-7.93c-.29,3.84-1.25,8.45-2.88,13.84-1.63,5.39-3.54,9.94-5.71,13.65h16.52Z"/>
      <path class="cls-1" d="m3966.06,52.91h-4.05v-31.21h-11.31l-.74,5.71c-.97,7.6-1.82,13.16-2.56,16.67-.74,3.52-1.71,5.96-2.92,7.34-1.21,1.38-2.81,2.05-4.81,2.02-1.17,0-2.23-.2-3.17-.59v-3.4c.86.41,1.75.62,2.69.62.84,0,1.57-.35,2.2-1.04.63-.69,1.18-1.89,1.67-3.59s1.09-4.94,1.83-9.71c.74-4.77,1.55-10.64,2.44-17.63h18.71v34.8Z"/>
      <path class="cls-1" d="m4005.83,35.46c0,5.57-1.41,9.95-4.23,13.14-2.82,3.19-6.73,4.78-11.75,4.78s-9.08-1.57-11.87-4.7c-2.79-3.13-4.18-7.56-4.18-13.27s1.4-10.06,4.19-13.18c2.79-3.12,6.76-4.68,11.9-4.68s8.9,1.59,11.71,4.76c2.81,3.17,4.21,7.55,4.21,13.14Zm-27.73,0c0,4.71,1,8.29,3.01,10.72,2.01,2.44,4.92,3.65,8.75,3.65s6.77-1.21,8.74-3.64c1.97-2.43,2.95-6.01,2.95-10.74s-.98-8.23-2.94-10.65c-1.96-2.42-4.86-3.63-8.7-3.63s-6.79,1.22-8.8,3.65-3.01,5.98-3.01,10.63Z"/>
      <path class="cls-1" d="m4023.04,35.01l-13.69-16.9h4.52l13.54,16.85v-16.85h3.9v16.85l13.57-16.85h4.52l-13.71,16.85,14.14,17.95h-4.67l-13.85-17.64v17.64h-3.9v-17.64l-13.83,17.64h-4.74l14.19-17.9Z"/>
      <path class="cls-1" d="m4074.15,52.91h-19.4V18.11h19.4v3.59h-15.35v11.21h14.43v3.57h-14.43v12.81h15.35v3.62Z"/>
      <path class="cls-1" d="m4108.28,52.91h-4.05v-16.38h-18.33v16.38h-4.05V18.11h4.05v14.81h18.33v-14.81h4.05v34.8Z"/>
      <path class="cls-1" d="m4117.88,18.11h3.78v19.35c0,3.57-.11,6.8-.33,9.69h.19l19.52-29.04h4.43v34.8h-3.81v-19.16c0-3.19.13-6.54.4-10.04h-.21l-19.54,29.21h-4.43V18.11Z"/>
      <path class="cls-1" d="m4155.03,18.11h3.78v19.35c0,3.57-.11,6.8-.33,9.69h.19l19.52-29.04h4.43v34.8h-3.81v-19.16c0-3.19.13-6.54.4-10.04h-.21l-19.54,29.21h-4.43V18.11Zm14.43-2.78c-2.94,0-5.08-.57-6.43-1.7-1.35-1.13-2.1-3-2.26-5.61h3.71c.14,1.65.58,2.8,1.3,3.45.72.65,1.98.98,3.77.98,1.63,0,2.84-.35,3.63-1.05.79-.7,1.27-1.82,1.44-3.38h3.74c-.19,2.51-.99,4.35-2.4,5.53-1.41,1.18-3.58,1.77-6.5,1.77Z"/>
    </g>
    <polygon class="cls-1" points="3556.06 17.45 3556.06 52.55 3520.96 52.55 3524.21 49.3 3550.51 49.3 3520.46 19.25 3525.06 19.25 3552.81 47 3552.81 20.7 3556.06 17.45"/>
    <polygon class="cls-1" points="2841.63 10 2866.45 34.82 2841.63 59.64 2841.63 55.05 2860.23 36.45 2817.73 36.45 2820.99 33.2 2860.23 33.2 2841.63 14.6 2841.63 10"/>
    <g>
      <path class="cls-1" d="m4312.4,42.77c0,3.46-1.03,6.01-3.08,7.66s-5.15,2.48-9.3,2.48h-10.19V18.11h20.52v3.59h-16.47v11.26h5.4c3.06,0,5.55.35,7.47,1.06,1.92.71,3.34,1.75,4.26,3.13.92,1.38,1.38,3.25,1.38,5.62Zm-18.52,6.64h5.69c3.01,0,5.21-.52,6.58-1.55,1.37-1.03,2.06-2.73,2.06-5.09s-.7-3.86-2.09-4.81c-1.4-.95-3.83-1.43-7.31-1.43h-4.93v12.88Z"/>
      <path class="cls-1" d="m4349.92,35.46c0,5.57-1.41,9.95-4.23,13.14-2.82,3.19-6.73,4.78-11.75,4.78s-9.08-1.57-11.87-4.7c-2.79-3.13-4.18-7.56-4.18-13.27s1.4-10.06,4.19-13.18c2.79-3.12,6.76-4.68,11.9-4.68s8.9,1.59,11.71,4.76c2.81,3.17,4.21,7.55,4.21,13.14Zm-27.73,0c0,4.71,1,8.29,3.01,10.72,2.01,2.44,4.92,3.65,8.75,3.65s6.77-1.21,8.74-3.64c1.97-2.43,2.95-6.01,2.95-10.74s-.98-8.23-2.94-10.65c-1.96-2.42-4.86-3.63-8.7-3.63s-6.79,1.22-8.8,3.65-3.01,5.98-3.01,10.63Z"/>
      <path class="cls-1" d="m4382.43,52.91h-4.05v-31.21h-11.31l-.74,5.71c-.97,7.6-1.82,13.16-2.56,16.67-.74,3.52-1.71,5.96-2.92,7.34-1.21,1.38-2.81,2.05-4.81,2.02-1.17,0-2.23-.2-3.17-.59v-3.4c.86.41,1.75.62,2.69.62.84,0,1.57-.35,2.2-1.04.63-.69,1.18-1.89,1.67-3.59s1.09-4.94,1.83-9.71c.74-4.77,1.55-10.64,2.44-17.63h18.71v34.8Z"/>
      <path class="cls-1" d="m4416.02,42.77c0,3.22-1.08,5.72-3.23,7.49-2.15,1.77-5.22,2.65-9.2,2.65h-11.59V18.11h4.05v14.85h6.93c4.24,0,7.47.84,9.7,2.51,2.23,1.67,3.34,4.11,3.34,7.3Zm-19.97,6.64h7.12c5.78,0,8.66-2.21,8.66-6.64,0-2.14-.74-3.72-2.23-4.73-1.48-1.01-3.86-1.51-7.13-1.51h-6.43v12.88Z"/>
      <path class="cls-1" d="m4464.1,52.91h-40.75V18.11h4.05v31.14h14.28v-31.14h4.05v31.14h14.28v-31.14h4.09v34.8Z"/>
      <path class="cls-1" d="m4493.07,52.91h-19.4V18.11h19.4v3.59h-15.35v11.21h14.43v3.57h-14.43v12.81h15.35v3.62Z"/>
      <path class="cls-1" d="m4539.42,52.91h-4.05v-31.21h-17.88v31.21h-4.05V18.11h25.97v34.8Z"/>
      <path class="cls-1" d="m4571.05,28.25c0,3.52-1.2,6.23-3.61,8.13-2.4,1.9-5.84,2.85-10.32,2.85h-4.09v13.69h-4.05V18.11h9.02c8.7,0,13.04,3.38,13.04,10.14Zm-18.02,7.5h3.64c3.59,0,6.18-.58,7.78-1.74,1.6-1.16,2.4-3.02,2.4-5.57,0-2.3-.75-4.01-2.26-5.14-1.51-1.13-3.86-1.69-7.05-1.69h-4.52v14.14Z"/>
      <path class="cls-1" d="m4597.74,52.91h-19.4V18.11h19.4v3.59h-15.35v11.21h14.43v3.57h-14.43v12.81h15.35v3.62Z"/>
      <path class="cls-1" d="m4632.9,61.98h-3.86v-9.07h-24.18v9.07h-3.86v-12.74h2.69c2.44-4.11,4.53-9.11,6.27-15,1.74-5.89,2.7-11.27,2.89-16.14h15.64v31.14h4.4v12.74Zm-8.45-12.74v-27.49h-7.93c-.29,3.84-1.25,8.45-2.88,13.84-1.63,5.39-3.54,9.94-5.71,13.65h16.52Z"/>
      <path class="cls-1" d="m4663.51,52.91h-4.05v-31.21h-11.31l-.74,5.71c-.97,7.6-1.82,13.16-2.56,16.67-.74,3.52-1.71,5.96-2.92,7.34-1.21,1.38-2.81,2.05-4.81,2.02-1.17,0-2.23-.2-3.17-.59v-3.4c.86.41,1.75.62,2.69.62.84,0,1.57-.35,2.2-1.04.63-.69,1.18-1.89,1.67-3.59s1.09-4.94,1.83-9.71c.74-4.77,1.55-10.64,2.44-17.63h18.71v34.8Z"/>
      <path class="cls-1" d="m4703.28,35.46c0,5.57-1.41,9.95-4.23,13.14-2.82,3.19-6.73,4.78-11.75,4.78s-9.08-1.57-11.87-4.7c-2.79-3.13-4.18-7.56-4.18-13.27s1.4-10.06,4.19-13.18c2.79-3.12,6.76-4.68,11.9-4.68s8.9,1.59,11.71,4.76c2.81,3.17,4.21,7.55,4.21,13.14Zm-27.73,0c0,4.71,1,8.29,3.01,10.72,2.01,2.44,4.92,3.65,8.75,3.65s6.77-1.21,8.74-3.64c1.97-2.43,2.95-6.01,2.95-10.74s-.98-8.23-2.94-10.65c-1.96-2.42-4.86-3.63-8.7-3.63s-6.79,1.22-8.8,3.65-3.01,5.98-3.01,10.63Z"/>
      <path class="cls-1" d="m4720.49,35.01l-13.69-16.9h4.52l13.54,16.85v-16.85h3.9v16.85l13.57-16.85h4.52l-13.71,16.85,14.14,17.95h-4.67l-13.85-17.64v17.64h-3.9v-17.64l-13.83,17.64h-4.74l14.19-17.9Z"/>
      <path class="cls-1" d="m4771.6,52.91h-19.4V18.11h19.4v3.59h-15.35v11.21h14.43v3.57h-14.43v12.81h15.35v3.62Z"/>
      <path class="cls-1" d="m4805.73,52.91h-4.05v-16.38h-18.33v16.38h-4.05V18.11h4.05v14.81h18.33v-14.81h4.05v34.8Z"/>
      <path class="cls-1" d="m4815.33,18.11h3.78v19.35c0,3.57-.11,6.8-.33,9.69h.19l19.52-29.04h4.43v34.8h-3.81v-19.16c0-3.19.13-6.54.4-10.04h-.21l-19.54,29.21h-4.43V18.11Z"/>
      <path class="cls-1" d="m4852.48,18.11h3.78v19.35c0,3.57-.11,6.8-.33,9.69h.19l19.52-29.04h4.43v34.8h-3.81v-19.16c0-3.19.13-6.54.4-10.04h-.21l-19.54,29.21h-4.43V18.11Zm14.43-2.78c-2.94,0-5.08-.57-6.43-1.7-1.35-1.13-2.1-3-2.26-5.61h3.71c.14,1.65.58,2.8,1.3,3.45.72.65,1.98.98,3.77.98,1.63,0,2.84-.35,3.63-1.05.79-.7,1.27-1.82,1.44-3.38h3.74c-.19,2.51-.99,4.35-2.4,5.53-1.41,1.18-3.58,1.77-6.5,1.77Z"/>
    </g>
    <polygon class="cls-1" points="4210.71 34.82 4235.53 10 4260.35 34.82 4255.75 34.82 4237.16 16.23 4237.16 58.72 4233.9 55.47 4233.9 16.23 4215.31 34.82 4210.71 34.82"/>
    <g>
      <path class="cls-1" d="m5009.85,42.77c0,3.46-1.03,6.01-3.08,7.66s-5.15,2.48-9.3,2.48h-10.19V18.11h20.52v3.59h-16.47v11.26h5.4c3.06,0,5.55.35,7.47,1.06,1.92.71,3.34,1.75,4.26,3.13.92,1.38,1.38,3.25,1.38,5.62Zm-18.52,6.64h5.69c3.01,0,5.21-.52,6.58-1.55,1.37-1.03,2.06-2.73,2.06-5.09s-.7-3.86-2.09-4.81c-1.4-.95-3.83-1.43-7.31-1.43h-4.93v12.88Z"/>
      <path class="cls-1" d="m5047.37,35.46c0,5.57-1.41,9.95-4.23,13.14-2.82,3.19-6.73,4.78-11.75,4.78s-9.08-1.57-11.87-4.7c-2.79-3.13-4.18-7.56-4.18-13.27s1.4-10.06,4.19-13.18c2.79-3.12,6.76-4.68,11.9-4.68s8.9,1.59,11.71,4.76c2.81,3.17,4.21,7.55,4.21,13.14Zm-27.73,0c0,4.71,1,8.29,3.01,10.72,2.01,2.44,4.92,3.65,8.75,3.65s6.77-1.21,8.74-3.64c1.97-2.43,2.95-6.01,2.95-10.74s-.98-8.23-2.94-10.65c-1.96-2.42-4.86-3.63-8.7-3.63s-6.79,1.22-8.8,3.65-3.01,5.98-3.01,10.63Z"/>
      <path class="cls-1" d="m5079.88,52.91h-4.05v-31.21h-11.31l-.74,5.71c-.97,7.6-1.82,13.16-2.56,16.67-.74,3.52-1.71,5.96-2.92,7.34-1.21,1.38-2.81,2.05-4.81,2.02-1.17,0-2.23-.2-3.17-.59v-3.4c.86.41,1.75.62,2.69.62.84,0,1.57-.35,2.2-1.04.63-.69,1.18-1.89,1.67-3.59s1.09-4.94,1.83-9.71c.74-4.77,1.55-10.64,2.44-17.63h18.71v34.8Z"/>
      <path class="cls-1" d="m5113.47,42.77c0,3.22-1.08,5.72-3.23,7.49-2.15,1.77-5.22,2.65-9.2,2.65h-11.59V18.11h4.05v14.85h6.93c4.24,0,7.47.84,9.7,2.51,2.23,1.67,3.34,4.11,3.34,7.3Zm-19.97,6.64h7.12c5.78,0,8.66-2.21,8.66-6.64,0-2.14-.74-3.72-2.23-4.73-1.48-1.01-3.86-1.51-7.13-1.51h-6.43v12.88Z"/>
      <path class="cls-1" d="m5161.55,52.91h-40.75V18.11h4.05v31.14h14.28v-31.14h4.05v31.14h14.28v-31.14h4.09v34.8Z"/>
      <path class="cls-1" d="m5190.52,52.91h-19.4V18.11h19.4v3.59h-15.35v11.21h14.43v3.57h-14.43v12.81h15.35v3.62Z"/>
      <path class="cls-1" d="m5236.87,52.91h-4.05v-31.21h-17.88v31.21h-4.05V18.11h25.97v34.8Z"/>
      <path class="cls-1" d="m5268.5,28.25c0,3.52-1.2,6.23-3.61,8.13-2.4,1.9-5.84,2.85-10.32,2.85h-4.09v13.69h-4.05V18.11h9.02c8.7,0,13.04,3.38,13.04,10.14Zm-18.02,7.5h3.64c3.59,0,6.18-.58,7.78-1.74,1.6-1.16,2.4-3.02,2.4-5.57,0-2.3-.75-4.01-2.26-5.14-1.51-1.13-3.86-1.69-7.05-1.69h-4.52v14.14Z"/>
      <path class="cls-1" d="m5295.19,52.91h-19.4V18.11h19.4v3.59h-15.35v11.21h14.43v3.57h-14.43v12.81h15.35v3.62Z"/>
      <path class="cls-1" d="m5330.35,61.98h-3.86v-9.07h-24.18v9.07h-3.86v-12.74h2.69c2.44-4.11,4.53-9.11,6.27-15,1.74-5.89,2.7-11.27,2.89-16.14h15.64v31.14h4.4v12.74Zm-8.45-12.74v-27.49h-7.93c-.29,3.84-1.25,8.45-2.88,13.84-1.63,5.39-3.54,9.94-5.71,13.65h16.52Z"/>
      <path class="cls-1" d="m5360.96,52.91h-4.05v-31.21h-11.31l-.74,5.71c-.97,7.6-1.82,13.16-2.56,16.67-.74,3.52-1.71,5.96-2.92,7.34-1.21,1.38-2.81,2.05-4.81,2.02-1.17,0-2.23-.2-3.17-.59v-3.4c.86.41,1.75.62,2.69.62.84,0,1.57-.35,2.2-1.04.63-.69,1.18-1.89,1.67-3.59s1.09-4.94,1.83-9.71c.74-4.77,1.55-10.64,2.44-17.63h18.71v34.8Z"/>
      <path class="cls-1" d="m5400.73,35.46c0,5.57-1.41,9.95-4.23,13.14-2.82,3.19-6.73,4.78-11.75,4.78s-9.08-1.57-11.87-4.7c-2.79-3.13-4.18-7.56-4.18-13.27s1.4-10.06,4.19-13.18c2.79-3.12,6.76-4.68,11.9-4.68s8.9,1.59,11.71,4.76c2.81,3.17,4.21,7.55,4.21,13.14Zm-27.73,0c0,4.71,1,8.29,3.01,10.72,2.01,2.44,4.92,3.65,8.75,3.65s6.77-1.21,8.74-3.64c1.97-2.43,2.95-6.01,2.95-10.74s-.98-8.23-2.94-10.65c-1.96-2.42-4.86-3.63-8.7-3.63s-6.79,1.22-8.8,3.65-3.01,5.98-3.01,10.63Z"/>
      <path class="cls-1" d="m5417.94,35.01l-13.69-16.9h4.52l13.54,16.85v-16.85h3.9v16.85l13.57-16.85h4.52l-13.71,16.85,14.14,17.95h-4.67l-13.85-17.64v17.64h-3.9v-17.64l-13.83,17.64h-4.74l14.19-17.9Z"/>
      <path class="cls-1" d="m5469.05,52.91h-19.4V18.11h19.4v3.59h-15.35v11.21h14.43v3.57h-14.43v12.81h15.35v3.62Z"/>
      <path class="cls-1" d="m5503.18,52.91h-4.05v-16.38h-18.33v16.38h-4.05V18.11h4.05v14.81h18.33v-14.81h4.05v34.8Z"/>
      <path class="cls-1" d="m5512.78,18.11h3.78v19.35c0,3.57-.11,6.8-.33,9.69h.19l19.52-29.04h4.43v34.8h-3.81v-19.16c0-3.19.13-6.54.4-10.04h-.21l-19.54,29.21h-4.43V18.11Z"/>
      <path class="cls-1" d="m5549.93,18.11h3.78v19.35c0,3.57-.11,6.8-.33,9.69h.19l19.52-29.04h4.43v34.8h-3.81v-19.16c0-3.19.13-6.54.4-10.04h-.21l-19.54,29.21h-4.43V18.11Zm14.43-2.78c-2.94,0-5.08-.57-6.43-1.7-1.35-1.13-2.1-3-2.26-5.61h3.71c.14,1.65.58,2.8,1.3,3.45.72.65,1.98.98,3.77.98,1.63,0,2.84-.35,3.63-1.05.79-.7,1.27-1.82,1.44-3.38h3.74c-.19,2.51-.99,4.35-2.4,5.53-1.41,1.18-3.58,1.77-6.5,1.77Z"/>
    </g>
    <polygon class="cls-1" points="4950.96 17.45 4950.96 52.55 4915.86 52.55 4919.11 49.3 4945.41 49.3 4915.36 19.25 4919.96 19.25 4947.71 47 4947.71 20.7 4950.96 17.45"/>
  </g>
</svg>