<?xml version="1.0" encoding="UTF-8"?> <svg xmlns="http://www.w3.org/2000/svg" id="_Слой_1" data-name="Слой 1" viewBox="0 0 100 100"> <defs> <style> .cls-1 { fill: #bf0603; } </style> </defs> <path class="cls-1" d="m86.48,34.59c-1.99-4.71-4.85-8.95-8.48-12.58-3.64-3.64-7.87-6.49-12.58-8.48-4.88-2.07-10.07-3.11-15.41-3.11s-10.53,1.05-15.41,3.11c-4.71,1.99-8.95,4.85-12.58,8.48s-6.49,7.87-8.48,12.58c-2.07,4.88-3.11,10.07-3.11,15.41s1.05,10.53,3.11,15.41c1.99,4.71,4.85,8.95,8.48,12.58,3.64,3.64,7.87,6.49,12.58,8.48,4.88,2.07,10.07,3.11,15.41,3.11s10.53-1.05,15.41-3.11c4.71-1.99,8.95-4.85,12.58-8.48,3.64-3.64,6.49-7.87,8.48-12.58,2.07-4.88,3.11-10.07,3.11-15.41s-1.05-10.53-3.11-15.41Zm-32.54,41.09c-1.11.99-2.42,1.49-3.9,1.49s-2.83-.49-3.96-1.47c-1.13-.98-1.69-2.35-1.69-4.1,0-1.53.54-2.84,1.62-3.92,1.08-1.08,2.4-1.62,3.96-1.62s2.89.54,3.99,1.62c1.1,1.08,1.65,2.38,1.65,3.92,0,1.73-.56,3.1-1.67,4.08Zm2.91-50.32l-3.05,33.11c-.07,1.27-1.12,2.27-2.4,2.27h-2.88c-1.28,0-2.33-1-2.4-2.27l-2.98-33.11c-.07-1.37,1.02-2.53,2.4-2.53h8.91c1.38,0,2.47,1.15,2.4,2.53Z"></path> <path class="cls-1" d="m50,95.98c-6.21,0-12.23-1.22-17.9-3.61-5.48-2.32-10.39-5.63-14.61-9.85-4.22-4.22-7.54-9.14-9.85-14.61-2.4-5.67-3.61-11.69-3.61-17.9s1.22-12.23,3.61-17.9c2.32-5.48,5.63-10.39,9.85-14.61,4.22-4.22,9.14-7.54,14.61-9.85,5.67-2.4,11.69-3.61,17.9-3.61s12.23,1.22,17.9,3.61c5.48,2.32,10.39,5.63,14.61,9.85s7.54,9.14,9.85,14.61c2.4,5.67,3.61,11.69,3.61,17.9s-1.22,12.23-3.61,17.9c-2.32,5.48-5.63,10.39-9.85,14.61-4.22,4.22-9.14,7.54-14.61,9.85-5.67,2.4-11.69,3.61-17.9,3.61Zm0-89.14C26.2,6.84,6.84,26.2,6.84,50s19.36,43.16,43.16,43.16,43.16-19.36,43.16-43.16S73.8,6.84,50,6.84Z"></path> </svg> 