<svg id="ada60f7a-b541-4847-9ecd-8a9ceb30deea" data-name="Слой 1" xmlns="http://www.w3.org/2000/svg" viewBox="0 0 28 28"><defs><style>.ba112427-f274-4041-b116-adff7ede7d54{fill:#fff;}</style></defs><path class="ba112427-f274-4041-b116-adff7ede7d54" d="M25.94,28h0a25.74,25.74,0,0,1-14.45-4.48A26,26,0,0,1,0,2.12,2.13,2.13,0,0,1,.51.53,2.11,2.11,0,0,1,2.07,0H7a1.79,1.79,0,0,1,2,1.87,20.51,20.51,0,0,0,.88,5.37,2,2,0,0,1-.62,2.11L7,11.54l-.73.7a23.11,23.11,0,0,0,9.47,9.49.86.86,0,0,0,.14-.13l2.31-2.3.66-.66a1.71,1.71,0,0,1,2-.43,15.44,15.44,0,0,0,5.06.88c1.49,0,2.13.67,2.13,2.17v.19c0,1.5,0,3,0,4.5A1.83,1.83,0,0,1,25.94,28ZM4.53.73H2.07A1.48,1.48,0,0,0,1,1a1.43,1.43,0,0,0-.3,1.07,25.3,25.3,0,0,0,1.85,9.32A25.23,25.23,0,0,0,25.94,27.27h0c1,0,1.34-.37,1.34-1.32q0-2.25,0-4.5v-.19c0-1.1-.31-1.43-1.4-1.44a16.13,16.13,0,0,1-5.31-.93,1,1,0,0,0-1.19.26l-.66.66-2.31,2.31-.26.23a.52.52,0,0,0-.11.1l-.2.17-.22-.13A23.84,23.84,0,0,1,5.51,12.33l-.12-.25L6.51,11l2.31-2.2a1.3,1.3,0,0,0,.43-1.36A20.72,20.72,0,0,1,8.33,1.9C8.3,1.08,7.92.74,7,.73Z"/></svg>