<svg id="b4561a95-c9c3-4006-bad6-595b0b0d9c27" data-name="Слой 1" xmlns="http://www.w3.org/2000/svg" viewBox="0 0 28 28"><defs><style>.b5d0aaae-6b38-4cb3-9369-5bd025f11732{fill:#fff;}</style></defs><path class="b5d0aaae-6b38-4cb3-9369-5bd025f11732" d="M14,0A14,14,0,1,0,28,14,14,14,0,0,0,14,0Zm0,1.22A12.78,12.78,0,1,1,1.22,14,12.76,12.76,0,0,1,14,1.22Zm5.53,6.11a4.22,4.22,0,0,0-1.43.29c-.85.31-10.84,4.55-12,5-.65.28-1.86.79-1.86,2A1.8,1.8,0,0,0,5.67,16.4c.51.18,1.7.54,2.4.73a3.54,3.54,0,0,0,.93.12,3.67,3.67,0,0,0,1.76-.43,1.63,1.63,0,0,0,0,.31,2.25,2.25,0,0,0,1.05,1.61c.38.24,3.51,2.33,4,2.66a3.62,3.62,0,0,0,2.1.72c1.36,0,1.82-1.41,2-2.09.32-1,1.51-9,1.65-10.37A2,2,0,0,0,20.5,7.53,2.3,2.3,0,0,0,19.53,7.33Zm0,1.21a1.06,1.06,0,0,1,.45.09.85.85,0,0,1,.39.91c-.15,1.54-1.35,9.34-1.6,10.12s-.45,1.24-.88,1.24a2.38,2.38,0,0,1-1.39-.49c-.47-.34-3.59-2.43-4-2.7a.88.88,0,0,1-.22-1.42c.47-.48,4-3.91,4.32-4.22s.12-.49-.11-.49a.43.43,0,0,0-.26.11c-.37.3-5.53,3.75-6,4A2.51,2.51,0,0,1,9,16,2.48,2.48,0,0,1,8.39,16c-.68-.19-1.85-.55-2.31-.71s-.6-.31-.6-.58S6,14,6.6,13.77s11.09-4.71,11.91-5A3.35,3.35,0,0,1,19.53,8.54Z"/></svg>