<svg id="ebf9db80-74ad-4766-8bea-26656ea3e042" data-name="Слой 1" xmlns="http://www.w3.org/2000/svg" viewBox="0 0 28 28"><defs><style>.ac588243-b194-4f14-ac78-34737570c2a9{fill:#fff;}</style></defs><path class="ac588243-b194-4f14-ac78-34737570c2a9" d="M14,0A14,14,0,0,0,0,14a13.84,13.84,0,0,0,1.82,6.82L0,27.23A.61.61,0,0,0,.44,28a.54.54,0,0,0,.31,0l6.68-1.65A14,14,0,1,0,14,0Zm0,1.22A12.78,12.78,0,1,1,7.77,25.16a.59.59,0,0,0-.45-.06L1.48,26.55,3,21A.56.56,0,0,0,3,20.48,12.79,12.79,0,0,1,14,1.22ZM8.91,6.7a1.93,1.93,0,0,0-1.4.63,4.75,4.75,0,0,0-1.42,3.38,7.19,7.19,0,0,0,1.59,4h0s.22.32.53.72A18.35,18.35,0,0,0,9.51,17a14.13,14.13,0,0,0,4.55,3.31,22.36,22.36,0,0,0,2.11.77,5.7,5.7,0,0,0,2.54.16,4.09,4.09,0,0,0,1.59-.66,2.88,2.88,0,0,0,1.31-1.42,5,5,0,0,0,.29-1.26,2.6,2.6,0,0,0,0-.48.86.86,0,0,0-.14-.47c-.28-.47-.6-.48-.94-.65l-1.24-.6c-.54-.25-1-.48-1.28-.58A1.44,1.44,0,0,0,17.6,15a1.21,1.21,0,0,0-.81.53c-.17.26-.86,1.07-1.07,1.31l-.07,0c-.26-.13-.58-.24-1.05-.49a9,9,0,0,1-1.71-1.19h0a9.74,9.74,0,0,1-1.84-2.26l0,0h0c.21-.21.41-.47.57-.65a3.1,3.1,0,0,0,.44-.72,1.34,1.34,0,0,0,0-1.17h0l-.15-.35c-.08-.2-.19-.46-.31-.73-.22-.55-.48-1.16-.63-1.52h0a1.64,1.64,0,0,0-.73-.88,1.24,1.24,0,0,0-.61-.1H8.91Zm0,1.21h.66c.2,0,.19,0,.15,0a.79.79,0,0,1,.13.24c.15.35.4,1,.63,1.52.12.27.22.53.31.73s.13.32.18.42h0c.06.1,0,0,0,.07a1.53,1.53,0,0,1-.27.47c-.2.23-.4.48-.51.58a1.51,1.51,0,0,0-.37.52,1.2,1.2,0,0,0,.12.95A10.94,10.94,0,0,0,12.09,16,10,10,0,0,0,14,17.39c.54.28,1,.45,1.08.5a1.48,1.48,0,0,0,.79.17,1.25,1.25,0,0,0,.72-.4h0c.21-.25.86-1,1.17-1.44l.11,0h0c.05,0,.64.28,1.16.53l1.23.59a4.35,4.35,0,0,0,.4.21,1.31,1.31,0,0,1,0,.2,3.86,3.86,0,0,1-.22.94,2.21,2.21,0,0,1-.82.81,3.79,3.79,0,0,1-1.12.49,4.51,4.51,0,0,1-2-.12c-.51-.17-1.15-.38-2-.73a13,13,0,0,1-4.15-3c-.51-.54-.92-1-1.22-1.42s-.41-.58-.52-.72h0a6.53,6.53,0,0,1-1.35-3.3A3.24,3.24,0,0,1,8.4,8.16.7.7,0,0,1,8.91,7.91Z"/></svg>